<svg xmlns="http://www.w3.org/2000/svg" xmlns:xlink="http://www.w3.org/1999/xlink" width="54.242" height="48.896" viewBox="0 0 54.242 48.896">
  <defs>
    <clipPath id="clip-path">
      <rect id="Rectangle_15952" data-name="Rectangle 15952" width="54.242" height="48.896" fill="#80057c"/>
    </clipPath>
  </defs>
  <g id="ic-assets" transform="translate(0 0)">
    <g id="Group_129190" data-name="Group 129190" transform="translate(0 0)" clip-path="url(#clip-path)">
      <path id="Path_128664" data-name="Path 128664" d="M3.683,45.626h0L7.1,30.594H9.659v6.315a1.635,1.635,0,0,0,1.634,1.635H42.948a1.636,1.636,0,0,0,1.635-1.635V30.594H47.14l3.418,15.032Zm27.2-19.17v8.817H23.359V26.457a3.761,3.761,0,0,1,7.523,0M27.12,19.426a7.039,7.039,0,0,0-7.031,7.031v8.818h-7.16V19.235L27.12,9.762l14.193,9.473V35.274H34.151V26.457a7.038,7.038,0,0,0-7.031-7.031m-18.3-2.772a1.163,1.163,0,0,1,.321-1.611L26.475,3.467a1.16,1.16,0,0,1,1.29,0L45.1,15.042a1.161,1.161,0,0,1-.648,2.127,1.146,1.146,0,0,1-.642-.2L28.028,6.437a1.631,1.631,0,0,0-1.815,0L10.427,16.973a1.164,1.164,0,0,1-1.611-.32M54.2,46.9,50.039,28.6a1.635,1.635,0,0,0-1.594-1.273H44.582V20.435a4.43,4.43,0,0,0,2.338-8.113L29.581.748a4.417,4.417,0,0,0-4.92,0L7.322,12.321a4.43,4.43,0,0,0,2.337,8.113v6.888H5.8A1.635,1.635,0,0,0,4.2,28.6L.04,46.9a1.635,1.635,0,0,0,1.594,2H52.606a1.633,1.633,0,0,0,1.594-2" transform="translate(0 -0.001)" fill="#80057c"/>
    </g>
  </g>
</svg>
