<svg xmlns="http://www.w3.org/2000/svg" xmlns:xlink="http://www.w3.org/1999/xlink" width="54.713" height="48.009" viewBox="0 0 54.713 48.009">
  <defs>
    <clipPath id="clip-path">
      <rect id="Rectangle_15973" data-name="Rectangle 15973" width="54.713" height="48.009" fill="#80057c"/>
    </clipPath>
  </defs>
  <g id="ic-Business" transform="translate(0 0)">
    <g id="Group_129228" data-name="Group 129228" transform="translate(0 0)" clip-path="url(#clip-path)">
      <path id="Path_128716" data-name="Path 128716" d="M52.941,6.35H38.687v-1.4A4.966,4.966,0,0,0,33.722,0H20.989a4.966,4.966,0,0,0-4.967,4.953v1.4H1.783A1.781,1.781,0,0,0,0,8.128V43.056a4.967,4.967,0,0,0,4.967,4.953H49.746a4.966,4.966,0,0,0,4.965-4.953V8.145A1.727,1.727,0,0,0,52.941,6.35m-33.351,0v-1.4a1.4,1.4,0,0,1,1.4-1.4H33.722a1.4,1.4,0,0,1,1.4,1.4v1.4ZM31.943,28.577H22.774v-2.8h9.169ZM45.6,24.446a1.4,1.4,0,0,1-1.327.955H35.5v-1.4a1.783,1.783,0,0,0-1.783-1.781H20.989a1.781,1.781,0,0,0-1.781,1.781v1.4H10.444a1.4,1.4,0,0,1-1.327-.955L4.257,9.907h46.2ZM10.444,28.959h8.765v1.4a1.781,1.781,0,0,0,1.781,1.779H33.722A1.783,1.783,0,0,0,35.5,30.354v-1.4h8.765a4.957,4.957,0,0,0,4.712-3.387l2.167-6.486v23.97a1.4,1.4,0,0,1-1.4,1.4H4.967a1.4,1.4,0,0,1-1.4-1.4V19.086l2.168,6.484a4.955,4.955,0,0,0,4.71,3.388" transform="translate(0 0)" fill="#80057c"/>
    </g>
  </g>
</svg>
