<svg xmlns="http://www.w3.org/2000/svg" xmlns:xlink="http://www.w3.org/1999/xlink" width="49.316" height="54.547" viewBox="0 0 49.316 54.547">
  <defs>
    <clipPath id="clip-path">
      <rect id="Rectangle_15964" data-name="Rectangle 15964" width="49.316" height="54.547" fill="#80057c"/>
    </clipPath>
  </defs>
  <g id="ic-call" transform="translate(0 0)">
    <g id="Group_129207" data-name="Group 129207" transform="translate(0 0)" clip-path="url(#clip-path)">
      <path id="Path_128678" data-name="Path 128678" d="M46.029,36.969a1.624,1.624,0,0,1-1.644,1.6H42.741v-9.8h1.643a1.625,1.625,0,0,1,1.644,1.6Zm-6.575,3.2a1.645,1.645,0,0,1-3.289,0v-13a1.645,1.645,0,0,1,3.289,0ZM24.658,51.35a1.6,1.6,0,1,1,1.644-1.6,1.624,1.624,0,0,1-1.644,1.6M4.932,28.764H6.575v9.8H4.932a1.624,1.624,0,0,1-1.644-1.6V30.363a1.625,1.625,0,0,1,1.644-1.6m4.931-1.6a1.645,1.645,0,0,1,3.289,0v13a1.645,1.645,0,0,1-3.289,0ZM24.658,0C11.062,0,0,10.754,0,23.971v13a4.869,4.869,0,0,0,4.932,4.793H6.859a4.931,4.931,0,0,0,4.648,3.2,4.869,4.869,0,0,0,4.932-4.793v-13a4.87,4.87,0,0,0-4.932-4.795,4.931,4.931,0,0,0-4.648,3.2H4.932a5.036,5.036,0,0,0-1.644.276V23.971C3.287,12.515,12.874,3.2,24.658,3.2s21.371,9.319,21.371,20.775v1.873a5.036,5.036,0,0,0-1.644-.276H42.457a4.931,4.931,0,0,0-4.648-3.2,4.87,4.87,0,0,0-4.932,4.795v13a4.869,4.869,0,0,0,4.932,4.793,5.069,5.069,0,0,0,1.431-.206,4.924,4.924,0,0,1-4.718,3.4H29.308a4.934,4.934,0,0,0-4.65-3.2,4.8,4.8,0,1,0,0,9.588,4.932,4.932,0,0,0,4.65-3.2h5.214a8.117,8.117,0,0,0,8.219-7.989v-1.6h1.643a4.869,4.869,0,0,0,4.932-4.793v-13C49.316,10.754,38.254,0,24.658,0" transform="translate(0 0)" fill="#80057c"/>
    </g>
  </g>
</svg>
