<svg xmlns="http://www.w3.org/2000/svg" xmlns:xlink="http://www.w3.org/1999/xlink" width="45.132" height="54.51" viewBox="0 0 45.132 54.51">
  <defs>
    <clipPath id="clip-path">
      <rect id="Rectangle_15974" data-name="Rectangle 15974" width="45.132" height="54.51" fill="#80057c"/>
    </clipPath>
  </defs>
  <g id="ic-certi" transform="translate(0 0)">
    <g id="Group_129231" data-name="Group 129231" transform="translate(0 0)" clip-path="url(#clip-path)">
      <path id="Path_128717" data-name="Path 128717" d="M34.062,40.881a7.665,7.665,0,1,1,7.665-7.665,7.673,7.673,0,0,1-7.665,7.665m4.258,8.988-3.413-1.95a1.707,1.707,0,0,0-1.69,0L29.8,49.869V43.436a11.064,11.064,0,0,0,8.515,0v6.432ZM3.7,43.436a.293.293,0,0,1-.292-.293V3.7A.291.291,0,0,1,3.7,3.408H33.77a.291.291,0,0,1,.292.292V22.144A11.067,11.067,0,0,0,26.4,41.2v2.239Zm33.77-20.755V3.7a3.7,3.7,0,0,0-3.7-3.7H3.7A3.7,3.7,0,0,0,0,3.7V43.143a3.7,3.7,0,0,0,3.7,3.7H26.4v5.963a1.7,1.7,0,0,0,2.548,1.479l5.116-2.924c5.65,3.23,5.355,3.148,5.961,3.148a1.7,1.7,0,0,0,1.7-1.7V41.2a11.075,11.075,0,0,0-4.258-18.517" transform="translate(0 -0.001)" fill="#80057c"/>
      <path id="Path_128718" data-name="Path 128718" d="M24.911,29.252c-.666,0-.75-.157-3.5-1.989a1.7,1.7,0,0,1,1.89-2.836l1.137.758L26.9,21.493a1.7,1.7,0,0,1,2.834,1.89l-3.406,5.111a1.7,1.7,0,0,1-1.419.758" transform="translate(8.297 8.329)" fill="#80057c"/>
      <path id="Path_128719" data-name="Path 128719" d="M22.254,9.483H7.777a1.7,1.7,0,1,1,0-3.406H22.254a1.7,1.7,0,1,1,0,3.406" transform="translate(2.44 2.441)" fill="#80057c"/>
      <path id="Path_128720" data-name="Path 128720" d="M22.254,14.343H7.777a1.7,1.7,0,1,1,0-3.406H22.254a1.7,1.7,0,1,1,0,3.406" transform="translate(2.44 4.393)" fill="#80057c"/>
      <path id="Path_128721" data-name="Path 128721" d="M16.293,19.2H7.778a1.7,1.7,0,1,1,0-3.406h8.515a1.7,1.7,0,1,1,0,3.406" transform="translate(2.44 6.346)" fill="#80057c"/>
    </g>
  </g>
</svg>
