<svg id="ic-coffe" xmlns="http://www.w3.org/2000/svg" xmlns:xlink="http://www.w3.org/1999/xlink" width="57.244" height="54.113" viewBox="0 0 57.244 54.113">
  <defs>
    <clipPath id="clip-path">
      <rect id="Rectangle_15944" data-name="Rectangle 15944" width="57.244" height="54.113" fill="#80057c"/>
    </clipPath>
  </defs>
  <g id="Group_129179" data-name="Group 129179" clip-path="url(#clip-path)">
    <path id="Path_128657" data-name="Path 128657" d="M49.813,33.257H45.322l.362-7.56c.027,0,.054,0,.081,0h4.048a3.778,3.778,0,1,1,0,7.556M34.521,41.169H13.946a7.093,7.093,0,0,1-7.1-6.749l-.716-14.99H42.34l-.718,14.99a7.091,7.091,0,0,1-7.1,6.749M49.813,22.075H45.857l.21-4.371a1.816,1.816,0,0,0-1.818-1.9H4.217A1.816,1.816,0,0,0,2.4,17.7l.807,16.89a10.7,10.7,0,0,0,6.37,9.281H1.82a1.813,1.813,0,1,0,0,3.627H46.9a1.813,1.813,0,1,0,0-3.627H38.89a10.709,10.709,0,0,0,6.007-6.99h4.916a7.4,7.4,0,1,0,0-14.809" transform="translate(0 6.612)" fill="#80057c"/>
    <path id="Path_128658" data-name="Path 128658" d="M14.426,19.445a1.815,1.815,0,1,0,1.852-3.122,4.18,4.18,0,0,1-1.919-3.017,4.487,4.487,0,0,1,.963-3.662l.023-.026c.2-.23.4-.457.591-.681C17.62,7.011,19.361,5.02,19.861,2.12a1.82,1.82,0,0,0-3.587-.614c-.328,1.9-1.6,3.357-3.082,5.049-.2.227-.4.457-.6.691a8.132,8.132,0,0,0-1.828,6.62,7.792,7.792,0,0,0,3.662,5.579" transform="translate(4.46 0)" fill="#80057c"/>
    <path id="Path_128659" data-name="Path 128659" d="M17.447,15.35a9.327,9.327,0,0,0,3.018,3.976,1.815,1.815,0,1,0,2.206-2.884,5.737,5.737,0,0,1-1.831-2.4c-.709-1.821-.037-3.635,2.247-6.066A11.211,11.211,0,0,0,26.081,2.1a1.82,1.82,0,0,0-3.594-.57,7.518,7.518,0,0,1-2.055,3.964c-1.194,1.269-4.825,5.133-2.984,9.856" transform="translate(7.086 0)" fill="#80057c"/>
  </g>
</svg>
