<svg xmlns="http://www.w3.org/2000/svg" width="54.403" height="54.51" viewBox="0 0 54.403 54.51">
  <g id="ic-calender" transform="translate(-0.199 -0.199)">
    <g id="Group_129211" data-name="Group 129211">
      <path id="Path_128679" data-name="Path 128679" d="M49.738,51.441H43.913l7.421-7.547v5.951a1.6,1.6,0,0,1-1.6,1.6m-.776-9.689L41.7,49.137V41.752ZM3.319,49.844V22.589H51.334v15.97H40.1a1.6,1.6,0,0,0-1.6,1.6V51.441H4.915a1.6,1.6,0,0,1-1.6-1.6m1.6-40.032H16.2v1.6a1.6,1.6,0,0,1-1.6,1.6,1.6,1.6,0,0,0,0,3.2,4.8,4.8,0,0,0,4.79-4.792v-1.6h9.582v1.6a1.6,1.6,0,0,1-1.6,1.6,1.6,1.6,0,1,0,0,3.2,4.8,4.8,0,0,0,4.79-4.792v-1.6h9.582v1.6a1.6,1.6,0,0,1-1.6,1.6,1.6,1.6,0,0,0,0,3.2,4.8,4.8,0,0,0,4.792-4.792v-1.6h4.79a1.6,1.6,0,0,1,1.6,1.6V19.4H3.319V11.409a1.6,1.6,0,0,1,1.6-1.6m8.092-4.9a1.6,1.6,0,1,1,3.194,0v1.7H13.008Zm12.774,0a1.6,1.6,0,0,1,3.2,0v1.7h-3.2Zm12.776,0a1.6,1.6,0,0,1,3.2,0v1.7h-3.2Zm11.179,1.7h-4.79v-1.7a4.791,4.791,0,0,0-9.582,0v1.7H32.171v-1.7a4.791,4.791,0,0,0-9.582,0v1.7H19.4v-1.7a4.791,4.791,0,0,0-9.582,0v1.7h-4.9a4.8,4.8,0,0,0-4.79,4.79V49.844a4.8,4.8,0,0,0,4.79,4.79H49.738a4.8,4.8,0,0,0,4.79-4.79V11.409a4.8,4.8,0,0,0-4.79-4.79" transform="translate(0.074 0.074)" fill="#80057c"/>
      <path id="Path_128681" data-name="Path 128681" d="M10.918,16.248H7.758a1.56,1.56,0,1,0,0,3.12h3.16a1.56,1.56,0,1,0,0-3.12" transform="translate(3.668 9.645)" fill="#80057c"/>
      <path id="Path_128683" data-name="Path 128683" d="M10.918,20.263H7.758a1.56,1.56,0,1,0,0,3.12h3.16a1.56,1.56,0,1,0,0-3.12" transform="translate(3.668 12.028)" fill="#80057c"/>
      <path id="Path_128685" data-name="Path 128685" d="M10.918,24.277H7.758a1.56,1.56,0,1,0,0,3.12h3.16a1.56,1.56,0,1,0,0-3.12" transform="translate(3.668 14.411)" fill="#80057c"/>
      <path id="Path_128687" data-name="Path 128687" d="M10.918,28.291H7.758a1.56,1.56,0,1,0,0,3.12h3.16a1.56,1.56,0,1,0,0-3.12" transform="translate(3.668 16.794)" fill="#80057c"/>
      <path id="Path_128689" data-name="Path 128689" d="M16.94,16.248H13.78a1.56,1.56,0,1,0,0,3.12h3.16a1.56,1.56,0,1,0,0-3.12" transform="translate(7.243 9.645)" fill="#80057c"/>
      <path id="Path_128691" data-name="Path 128691" d="M16.94,20.263H13.78a1.56,1.56,0,1,0,0,3.12h3.16a1.56,1.56,0,1,0,0-3.12" transform="translate(7.243 12.028)" fill="#80057c"/>
      <path id="Path_128693" data-name="Path 128693" d="M16.94,24.277H13.78a1.56,1.56,0,1,0,0,3.12h3.16a1.56,1.56,0,1,0,0-3.12" transform="translate(7.243 14.411)" fill="#80057c"/>
      <path id="Path_128695" data-name="Path 128695" d="M16.94,28.291H13.78a1.56,1.56,0,1,0,0,3.12h3.16a1.56,1.56,0,1,0,0-3.12" transform="translate(7.243 16.794)" fill="#80057c"/>
      <path id="Path_128697" data-name="Path 128697" d="M19.8,19.368h3.16a1.56,1.56,0,1,0,0-3.12H19.8a1.56,1.56,0,1,0,0,3.12" transform="translate(10.817 9.645)" fill="#80057c"/>
      <path id="Path_128699" data-name="Path 128699" d="M22.961,20.263H19.8a1.56,1.56,0,1,0,0,3.12h3.16a1.56,1.56,0,1,0,0-3.12" transform="translate(10.817 12.028)" fill="#80057c"/>
      <path id="Path_128701" data-name="Path 128701" d="M22.961,24.277H19.8a1.56,1.56,0,1,0,0,3.12h3.16a1.56,1.56,0,1,0,0-3.12" transform="translate(10.817 14.411)" fill="#80057c"/>
      <path id="Path_128703" data-name="Path 128703" d="M22.961,28.291H19.8a1.56,1.56,0,1,0,0,3.12h3.16a1.56,1.56,0,1,0,0-3.12" transform="translate(10.817 16.794)" fill="#80057c"/>
      <path id="Path_128705" data-name="Path 128705" d="M25.823,19.368h3.16a1.56,1.56,0,1,0,0-3.12h-3.16a1.56,1.56,0,1,0,0,3.12" transform="translate(14.392 9.645)" fill="#80057c"/>
      <path id="Path_128707" data-name="Path 128707" d="M25.823,23.383h3.16a1.56,1.56,0,1,0,0-3.12h-3.16a1.56,1.56,0,1,0,0,3.12" transform="translate(14.392 12.028)" fill="#80057c"/>
    </g>
  </g>
</svg>
