<svg id="ic-contact" xmlns="http://www.w3.org/2000/svg" width="43.277" height="54.097" viewBox="0 0 43.277 54.097">
  <g id="Group_129237" data-name="Group 129237">
    <path id="Path_128713" data-name="Path 128713" d="M39.677,45.069a5.41,5.41,0,0,1-5.41,5.41H9.011a5.41,5.41,0,0,1-5.41-5.41V14.42a5.41,5.41,0,0,1,5.41-5.41h5.41v1.809a5.41,5.41,0,0,0,5.41,5.41h3.6a5.41,5.41,0,0,0,5.41-5.41V9.01h5.41a5.41,5.41,0,0,1,5.41,5.41ZM18.038,3.6h7.219v7.219a1.809,1.809,0,0,1-1.809,1.809H19.831a1.81,1.81,0,0,1-1.792-1.809ZM34.267,5.41h-5.41V3.6a3.6,3.6,0,0,0-3.6-3.6H18.038a3.6,3.6,0,0,0-3.6,3.6V5.41H9.029A9.029,9.029,0,0,0,0,14.42V45.087A9.029,9.029,0,0,0,9.011,54.1H34.267a9.027,9.027,0,0,0,9.01-9.01V14.42a9.026,9.026,0,0,0-9.01-9.01" fill="#80057c"/>
    <path id="Path_128715" data-name="Path 128715" d="M18.135,26.327A11.106,11.106,0,0,0,7.992,32.785l3.279,1.5a7.473,7.473,0,0,1,13.525,0l3.482-1.5a11.124,11.124,0,0,0-10.143-6.458" transform="translate(3.503 11.541)" fill="#80057c"/>
    <g id="Path_128722" data-name="Path 128722" transform="translate(13.695 19.873)" fill="none">
      <path d="M8.029,0A8.029,8.029,0,1,1,0,8.029,8.029,8.029,0,0,1,8.029,0Z" stroke="none"/>
      <path d="M 8.02880859375 3.499999046325684 C 5.531618118286133 3.499999046325684 3.499999046325684 5.531618118286133 3.499999046325684 8.02880859375 C 3.499999046325684 10.52599906921387 5.531618118286133 12.55761909484863 8.02880859375 12.55761909484863 C 10.52599906921387 12.55761909484863 12.55761909484863 10.52599906921387 12.55761909484863 8.02880859375 C 12.55761909484863 5.531618118286133 10.52599906921387 3.499999046325684 8.02880859375 3.499999046325684 M 8.02880859375 -1.9073486328125e-06 C 12.46299839019775 -1.9073486328125e-06 16.05761909484863 3.594618797302246 16.05761909484863 8.02880859375 C 16.05761909484863 12.46299839019775 12.46299839019775 16.05761909484863 8.02880859375 16.05761909484863 C 3.594618797302246 16.05761909484863 -1.9073486328125e-06 12.46299839019775 -1.9073486328125e-06 8.02880859375 C -1.9073486328125e-06 3.594618797302246 3.594618797302246 -1.9073486328125e-06 8.02880859375 -1.9073486328125e-06 Z" stroke="none" fill="#80057c"/>
    </g>
  </g>
</svg>
