<svg id="ic-deliver" xmlns="http://www.w3.org/2000/svg" xmlns:xlink="http://www.w3.org/1999/xlink" width="57.242" height="38.776" viewBox="0 0 57.242 38.776">
  <defs>
    <clipPath id="clip-path">
      <rect id="Rectangle_15945" data-name="Rectangle 15945" width="57.242" height="38.776" fill="#80057c"/>
    </clipPath>
  </defs>
  <g id="Group_129182" data-name="Group 129182" clip-path="url(#clip-path)">
    <path id="Path_128660" data-name="Path 128660" d="M53.232,30.516a6.922,6.922,0,0,0-13.482-.461V22.206H53.887v8.31Zm-4.269,3.86a3.574,3.574,0,1,1,1.047-2.526,3.555,3.555,0,0,1-1.047,2.526m-29.262,0a3.573,3.573,0,1,1,0-5.054,3.551,3.551,0,0,1,0,5.054M8.648,16.774h8.729a1.677,1.677,0,0,0,0-3.355H8.648V10.064h9.959a1.677,1.677,0,1,0,0-3.355H8.648V3.355H36.442L36.4,30.516H23.97A6.927,6.927,0,0,0,10.379,30.5H8.648Zm42.959,2.079H39.749V12.267h5.484Zm5.162.511-9.62-9.94a1.679,1.679,0,0,0-1.205-.511H39.8V1.678A1.678,1.678,0,0,0,38.119,0H6.971A1.678,1.678,0,0,0,5.294,1.678V6.71H4.026a1.677,1.677,0,1,0,0,3.355H5.294v3.355H1.677a1.677,1.677,0,0,0,0,3.355H5.294v15.4a1.677,1.677,0,0,0,1.677,1.677h3.57A6.926,6.926,0,0,0,23.8,33.87H39.813a6.924,6.924,0,0,0,13.247,0h2.5a1.677,1.677,0,0,0,1.678-1.677V20.529a1.679,1.679,0,0,0-.473-1.166" transform="translate(0 0)" fill="#80057c"/>
  </g>
</svg>
