<svg xmlns="http://www.w3.org/2000/svg" xmlns:xlink="http://www.w3.org/1999/xlink" width="54.242" height="54.492" viewBox="0 0 54.242 54.492">
  <defs>
    <clipPath id="clip-path">
      <rect id="Rectangle_15953" data-name="Rectangle 15953" width="54.242" height="54.492" fill="#80057c"/>
    </clipPath>
  </defs>
  <g id="ic-med2" transform="translate(0 0)">
    <g id="Group_129193" data-name="Group 129193" transform="translate(0 0)" clip-path="url(#clip-path)">
      <path id="Path_128665" data-name="Path 128665" d="M29.921,18.286A1.377,1.377,0,0,1,28.547,16.9V9.338a1.378,1.378,0,0,0-1.376-1.381H22.293a1.381,1.381,0,0,1,0-2.762h4.878A4.134,4.134,0,0,1,31.3,9.338V16.9a1.377,1.377,0,0,1-1.374,1.381" transform="translate(6.964 1.73)" fill="#80057c"/>
      <path id="Path_128666" data-name="Path 128666" d="M24.678,52.763H4.123A4.132,4.132,0,0,1,0,48.62V9.338A4.133,4.133,0,0,1,4.123,5.2H9A1.381,1.381,0,0,1,9,7.957H4.123A1.378,1.378,0,0,0,2.748,9.338V48.62A1.378,1.378,0,0,0,4.123,50H24.678a1.381,1.381,0,0,1,0,2.762" transform="translate(0 1.73)" fill="#80057c"/>
      <path id="Path_128667" data-name="Path 128667" d="M8.012,20.41A1.365,1.365,0,0,1,7.04,20L4.433,17.385a1.386,1.386,0,0,1,0-1.953,1.37,1.37,0,0,1,1.945,0l1.635,1.643,3.9-3.919a1.379,1.379,0,1,1,1.947,1.954L8.983,20.006a1.374,1.374,0,0,1-.972.4" transform="translate(1.342 4.246)" fill="#80057c"/>
      <path id="Path_128668" data-name="Path 128668" d="M8.007,28.985a1.37,1.37,0,0,1-.972-.4L4.429,25.961a1.378,1.378,0,0,1,1.943-1.953l1.635,1.643,3.9-3.919a1.378,1.378,0,0,1,1.943,1.953L8.975,28.58a1.362,1.362,0,0,1-.968.405" transform="translate(1.346 7.107)" fill="#80057c"/>
      <path id="Path_128669" data-name="Path 128669" d="M8.025,37.563a1.37,1.37,0,0,1-.972-.4L4.446,34.539a1.386,1.386,0,0,1-.107-1.95,1.37,1.37,0,0,1,1.941-.105,1.208,1.208,0,0,1,.109.109l1.635,1.642,3.9-3.921a1.378,1.378,0,0,1,1.943,1.953L8.993,37.161a1.369,1.369,0,0,1-.968.4" transform="translate(1.328 9.963)" fill="#80057c"/>
      <path id="Path_128670" data-name="Path 128670" d="M26.334,15.515H15.141a1.381,1.381,0,0,1,0-2.762H26.334a1.381,1.381,0,0,1,0,2.762" transform="translate(4.583 4.246)" fill="#80057c"/>
      <path id="Path_128671" data-name="Path 128671" d="M20.094,19.8H15.141a1.38,1.38,0,0,1,0-2.76h4.953a1.38,1.38,0,0,1,0,2.76" transform="translate(4.583 5.675)" fill="#80057c"/>
      <path id="Path_128672" data-name="Path 128672" d="M8.472,10.036h17.5V6.574H21.018a1.378,1.378,0,0,1-1.374-1.381,2.42,2.42,0,0,0-4.84,0A1.377,1.377,0,0,1,13.43,6.574H8.472ZM27.351,12.8H7.1a1.378,1.378,0,0,1-1.374-1.381V5.193A1.378,1.378,0,0,1,7.1,3.812h5.142a5.164,5.164,0,0,1,9.968,0h5.144a1.378,1.378,0,0,1,1.374,1.381v6.223A1.378,1.378,0,0,1,27.352,12.8Z" transform="translate(1.906 0)" fill="#80057c"/>
      <path id="Path_128673" data-name="Path 128673" d="M32.779,19.806A13.125,13.125,0,1,0,45.844,32.931,13.112,13.112,0,0,0,32.779,19.806m0,29.012A15.887,15.887,0,1,1,48.594,32.931,15.87,15.87,0,0,1,32.779,48.818" transform="translate(5.648 5.675)" fill="#80057c"/>
      <path id="Path_128674" data-name="Path 128674" d="M29.558,37.511H32.6V34.132a1.377,1.377,0,0,1,1.374-1.381H37.34V29.695H33.975A1.377,1.377,0,0,1,32.6,28.314V24.935H29.558v3.379a1.378,1.378,0,0,1-1.376,1.381H24.819v3.056h3.363a1.378,1.378,0,0,1,1.376,1.381Zm4.417,2.762H28.182a1.378,1.378,0,0,1-1.374-1.381V35.513H23.445a1.377,1.377,0,0,1-1.374-1.381V28.314a1.377,1.377,0,0,1,1.374-1.381h3.363V23.554a1.377,1.377,0,0,1,1.374-1.381h5.793a1.376,1.376,0,0,1,1.374,1.381v3.379h3.364a1.377,1.377,0,0,1,1.374,1.381v5.818a1.377,1.377,0,0,1-1.374,1.381H35.349v3.379a1.377,1.377,0,0,1-1.374,1.381" transform="translate(7.348 7.382)" fill="#80057c"/>
    </g>
  </g>
</svg>
