<svg xmlns="http://www.w3.org/2000/svg" xmlns:xlink="http://www.w3.org/1999/xlink" width="54.243" height="54.246" viewBox="0 0 54.243 54.246">
  <defs>
    <clipPath id="clip-path">
      <rect id="Rectangle_15943" data-name="Rectangle 15943" width="54.243" height="54.246" fill="#80057c"/>
    </clipPath>
  </defs>
  <g id="ic-med" transform="translate(0 0)">
    <g id="Group_129172" data-name="Group 129172" transform="translate(0 0)" clip-path="url(#clip-path)">
      <path id="Path_128655" data-name="Path 128655" d="M22.462,0A26.713,26.713,0,0,0,10.469,2.789a1.938,1.938,0,0,0,1.45,3.594,1.876,1.876,0,0,0,.254-.125A23.25,23.25,0,0,1,45.711,27.123c0,9.454-5.076,19.993-13.562,21.311A6.32,6.32,0,0,1,26.9,47.35a9.688,9.688,0,0,1-2.5-6.82A13.56,13.56,0,0,0,36.023,27.123V15.5a1.937,1.937,0,0,0-1.938-1.938H28.273a1.937,1.937,0,1,0,0,3.874h3.876v9.687a9.687,9.687,0,0,1-19.375,0V17.436H16.65a1.937,1.937,0,1,0,0-3.874H10.838A1.937,1.937,0,0,0,8.9,15.5V27.123A13.56,13.56,0,0,0,20.524,40.529c.253,4.456,1.511,7.75,3.758,9.687a9.052,9.052,0,0,0,6.278,2.092,16.358,16.358,0,0,0,2.131-.136c10.966-1.589,16.893-14.1,16.893-25.05A27.123,27.123,0,0,0,22.462,0" transform="translate(4.659 0)" fill="#80057c"/>
      <path id="Path_128656" data-name="Path 128656" d="M9.683,47.744a3.875,3.875,0,1,1,3.874-3.874,3.873,3.873,0,0,1-3.874,3.874m0-11.624a7.874,7.874,0,0,0-2.441.427,23.247,23.247,0,0,1,3.1-28.15,1.937,1.937,0,1,0-2.59-2.881,1.832,1.832,0,0,0-.2.207A27.125,27.125,0,0,0,3.987,38.658a7.75,7.75,0,1,0,5.7-2.538" transform="translate(0 2.627)" fill="#80057c"/>
    </g>
  </g>
</svg>
