<svg xmlns="http://www.w3.org/2000/svg" xmlns:xlink="http://www.w3.org/1999/xlink" width="52.325" height="54.21" viewBox="0 0 52.325 54.21">
  <defs>
    <clipPath id="clip-path">
      <rect id="Rectangle_15966" data-name="Rectangle 15966" width="52.325" height="54.21" fill="#80057c"/>
    </clipPath>
  </defs>
  <g id="ic-people" transform="translate(0 0)">
    <g id="Group_129214" data-name="Group 129214" transform="translate(0 0)" clip-path="url(#clip-path)">
      <path id="Path_128709" data-name="Path 128709" d="M49.247,39.383H35.91V37.794a4.7,4.7,0,0,1,4.616-4.764h4.1a4.7,4.7,0,0,1,4.618,4.764ZM19.493,37.794a4.7,4.7,0,0,1,4.618-4.764h4.1a4.7,4.7,0,0,1,4.616,4.764v1.589H19.493Zm-16.415,0a4.7,4.7,0,0,1,4.616-4.764h4.1a4.7,4.7,0,0,1,4.616,4.764v1.589H3.078ZM9.746,23.5a3.178,3.178,0,0,1,0,6.353,3.178,3.178,0,0,1,0-6.353m16.416,0a3.178,3.178,0,1,1-3.077,3.177A3.133,3.133,0,0,1,26.163,23.5m16.415,0A3.178,3.178,0,1,1,39.5,26.676,3.132,3.132,0,0,1,42.578,23.5m4.954,6.942a6.459,6.459,0,0,0,1.2-3.765,6.159,6.159,0,1,0-12.311,0,6.458,6.458,0,0,0,1.2,3.765,7.78,7.78,0,0,0-3.254,2.593,7.766,7.766,0,0,0-3.252-2.593,6.458,6.458,0,0,0,1.2-3.765,6.159,6.159,0,1,0-12.311,0,6.448,6.448,0,0,0,1.2,3.765,7.761,7.761,0,0,0-3.254,2.593A7.761,7.761,0,0,0,14.7,30.441a6.448,6.448,0,0,0,1.2-3.765,6.264,6.264,0,0,0-6.157-6.353,6.264,6.264,0,0,0-6.155,6.353,6.458,6.458,0,0,0,1.2,3.765A7.956,7.956,0,0,0,0,37.794V40.97A1.564,1.564,0,0,0,1.54,42.558H50.786a1.564,1.564,0,0,0,1.539-1.588V37.794a7.955,7.955,0,0,0-4.792-7.352" transform="translate(0.001 11.652)" fill="#80057c"/>
      <path id="Path_128710" data-name="Path 128710" d="M17.923,9.126a1.542,1.542,0,0,0,1.158-.868l1.473-3.081,1.474,3.081a1.539,1.539,0,0,0,1.158.868l3.295.5-2.384,2.4a1.614,1.614,0,0,0-.442,1.405l.562,3.386-2.945-1.6a1.5,1.5,0,0,0-1.433,0l-2.947,1.6.563-3.386a1.623,1.623,0,0,0-.442-1.405l-2.384-2.4ZM14.284,13.71l-.953,5.735a1.549,1.549,0,0,0,2.233,1.674l4.991-2.708,4.991,2.708a1.55,1.55,0,0,0,2.234-1.674l-.953-5.735L30.863,9.65A1.6,1.6,0,0,0,30.01,6.94L24.429,6.1,21.934.886a1.517,1.517,0,0,0-2.76,0L16.679,6.1,11.1,6.94a1.6,1.6,0,0,0-.853,2.709Z" transform="translate(5.608 0)" fill="#80057c"/>
      <path id="Path_128711" data-name="Path 128711" d="M6.37,12.851a1.542,1.542,0,0,0,1.16-.868l.68-1.424.681,1.424a1.539,1.539,0,0,0,1.158.868l1.523.228-1.1,1.109a1.614,1.614,0,0,0-.442,1.405l.26,1.565L8.925,16.42a1.5,1.5,0,0,0-1.432,0l-1.361.739.26-1.565a1.623,1.623,0,0,0-.442-1.405l-1.1-1.109ZM3.222,15.88l-.65,3.913A1.549,1.549,0,0,0,4.8,21.467l3.4-1.847,3.406,1.847a1.549,1.549,0,0,0,2.233-1.674L13.2,15.88l2.755-2.771A1.6,1.6,0,0,0,15.1,10.4l-3.806-.571-1.7-3.56a1.518,1.518,0,0,0-2.76,0l-1.7,3.56L1.32,10.4a1.6,1.6,0,0,0-.853,2.708Z" transform="translate(0 3.087)" fill="#80057c"/>
      <path id="Path_128712" data-name="Path 128712" d="M29.19,12.853a1.545,1.545,0,0,0,1.16-.868l.68-1.424.681,1.424a1.543,1.543,0,0,0,1.158.868l1.523.228-1.1,1.108a1.616,1.616,0,0,0-.442,1.407l.26,1.564-1.363-.738a1.492,1.492,0,0,0-1.432,0l-1.361.738.26-1.564a1.62,1.62,0,0,0-.442-1.407l-1.1-1.108Zm-5.9.256,2.755,2.771-.65,3.915a1.55,1.55,0,0,0,2.233,1.674l3.4-1.847,3.406,1.847a1.55,1.55,0,0,0,2.233-1.674l-.65-3.915,2.755-2.771a1.6,1.6,0,0,0-.853-2.709l-3.808-.571-1.7-3.56a1.518,1.518,0,0,0-2.76,0l-1.7,3.56L24.14,10.4a1.6,1.6,0,0,0-.853,2.709" transform="translate(13.084 3.087)" fill="#80057c"/>
    </g>
  </g>
</svg>
