<svg id="ic-squad" xmlns="http://www.w3.org/2000/svg" xmlns:xlink="http://www.w3.org/1999/xlink" width="40.834" height="54.395" viewBox="0 0 40.834 54.395">
  <defs>
    <clipPath id="clip-path">
      <rect id="Rectangle_15965" data-name="Rectangle 15965" width="40.834" height="54.395" fill="#80057c"/>
    </clipPath>
  </defs>
  <g id="Group_129212" data-name="Group 129212" transform="translate(0 0)" clip-path="url(#clip-path)">
    <path id="Path_128708" data-name="Path 128708" d="M37.873,51.515H21.9V47.159l14.024-4,.17.238a9.3,9.3,0,0,1,1.783,5.433ZM16.022,35.1l-.039-.022a9.131,9.131,0,0,1-5.05-8.13V21.611H29.9v5.338a9.13,9.13,0,0,1-5.048,8.128l-.012.006a.439.439,0,0,1-.04.023,9.689,9.689,0,0,1-8.78,0m2.915,9.058L7.287,40.835l.884-.465A9.687,9.687,0,0,1,9.726,39.7l5.535-1.777.146.063a12.711,12.711,0,0,0,3.177.9l.352.051Zm0,7.356H2.96V48.829A9.316,9.316,0,0,1,4.744,43.4l.171-.238,14.022,4ZM11.6,35.452l.474.462L8.8,36.964a12.734,12.734,0,0,0-2.339,1.05l-.62.348V21.611H7.972v5.338a11.805,11.805,0,0,0,3.624,8.5m21.949,5.383L21.9,44.159V38.94l.353-.051a12.592,12.592,0,0,0,3.177-.905l.146-.063L31.106,39.7a9.651,9.651,0,0,1,1.557.673Zm-1.511-3.87-3.273-1.052.474-.462a11.8,11.8,0,0,0,3.626-8.5V21.611h2.134V38.364l-.62-.349a12.788,12.788,0,0,0-2.34-1.05M4.359,16.469H36.475a1.132,1.132,0,1,1,0,2.263H4.359a1.132,1.132,0,1,1,0-2.263m3.119-3.345a12.08,12.08,0,0,1,4.19-7.3,12.7,12.7,0,0,1,8.151-2.949h1.2a12.7,12.7,0,0,1,8.151,2.949,12.085,12.085,0,0,1,4.19,7.3l.075.465H7.4Zm30.478,27.86V21.34l.24-.108A4.017,4.017,0,0,0,40.6,17.6a4.06,4.06,0,0,0-3.862-3.984l-.344-.022-.04-.332A15.3,15.3,0,0,0,21.016,0h-1.2A15.3,15.3,0,0,0,4.482,13.264l-.04.332-.345.022A4.061,4.061,0,0,0,.235,17.6a4.019,4.019,0,0,0,2.4,3.631l.24.108V40.986l-.09.11A12.24,12.24,0,0,0,0,48.829v4.125a1.462,1.462,0,0,0,1.48,1.44H39.354a1.462,1.462,0,0,0,1.48-1.44V48.829a12.215,12.215,0,0,0-2.788-7.735Z" transform="translate(0 0)" fill="#80057c"/>
  </g>
</svg>
