<svg id="ic-training" xmlns="http://www.w3.org/2000/svg" width="54.408" height="54.408" viewBox="0 0 54.408 54.408">
  <g id="Group_129159" data-name="Group 129159" transform="translate(0 0)">
    <path id="Path_128645" data-name="Path 128645" d="M7.179,8.775H20.1a1.594,1.594,0,0,0,0-3.189H7.179a1.594,1.594,0,0,0,0,3.189" transform="translate(1.248 1.246)" fill="#80057c"/>
    <path id="Path_128646" data-name="Path 128646" d="M31.206,11.165H7.179a1.594,1.594,0,0,0,0,3.189H31.206a1.594,1.594,0,0,0,0-3.189" transform="translate(1.248 2.49)" fill="#80057c"/>
    <path id="Path_128647" data-name="Path 128647" d="M25.957,16.751H7.18a1.594,1.594,0,0,0,0,3.189H25.957a1.594,1.594,0,0,0,0-3.189" transform="translate(1.248 3.736)" fill="#80057c"/>
    <path id="Path_128648" data-name="Path 128648" d="M51.221,51.219H37.331V33.314l6.938-3.475,6.94,3.475V51.219ZM35.025,30.9a1.591,1.591,0,0,0-.712.712l-1.265,2.529H16.237l-2.976-5.951a1.592,1.592,0,0,0-2.847,1.425l2.264,4.527H3.189V3.189h39.5v11.5a7.586,7.586,0,0,0-2.6,13.7Zm-.882,14.676a4.57,4.57,0,0,1-3.931,2.231h-8.13a1.822,1.822,0,0,1,0-3.645h8.533a1.581,1.581,0,0,0,1.424-.882l2.1-4.209ZM17.831,37.331H31.455l-1.827,3.645H22.082a4.927,4.927,0,0,0-2.178.5ZM48.659,22.082a4.383,4.383,0,1,1-4.379-4.39,4.386,4.386,0,0,1,4.379,4.39M53.526,30.9l-5.048-2.529a7.588,7.588,0,0,0-2.6-13.7V1.594A1.592,1.592,0,0,0,44.281,0H1.595A1.592,1.592,0,0,0,0,1.594V35.737a1.593,1.593,0,0,0,1.595,1.595H14.272l3.273,6.535a5.034,5.034,0,0,0,4.538,7.119h8.13a7.7,7.7,0,0,0,3.931-1.063v2.891a1.592,1.592,0,0,0,1.595,1.594H52.814a1.592,1.592,0,0,0,1.594-1.594V32.325a1.581,1.581,0,0,0-.882-1.424" transform="translate(0 0)" fill="#80057c"/>
  </g>
</svg>
