<svg xmlns="http://www.w3.org/2000/svg" width="75.947" height="90.452" viewBox="0 0 75.947 90.452">
  <g id="start-icon" transform="translate(-0.001)">
    <g id="Group_129162" data-name="Group 129162" transform="translate(0.001 0)">
      <path id="Path_128649" data-name="Path 128649" d="M37.829,61.486A28.023,28.023,0,1,1,65.87,33.464,28.064,28.064,0,0,1,37.829,61.486m25.419-6.278.2-.233a33.472,33.472,0,1,0-51.035.25l.215.25L.37,76.436a2.635,2.635,0,0,0,.25,3.031,2.648,2.648,0,0,0,2.871.964l10.453-3.1,3.888,11.328a2.741,2.741,0,0,0,4.924.463l7.492-13.076a2.7,2.7,0,0,0,.268-2.069,2.718,2.718,0,0,0-4.977-.642L21.026,81.2l-2.8-8.116a2.734,2.734,0,0,0-3.352-1.73L8.5,73.242l8.1-13.9.41.321a33.092,33.092,0,0,0,20.781,7.241,33.55,33.55,0,0,0,21.031-7.437l.41-.321,8.223,14.091-6.367-1.89a2.72,2.72,0,0,0-3.354,1.73l-2.8,8.116-4.727-8.26a2.666,2.666,0,0,0-1.641-1.267,2.468,2.468,0,0,0-.713-.089,2.861,2.861,0,0,0-1.356.357,2.659,2.659,0,0,0-1.267,1.641A2.8,2.8,0,0,0,45.5,75.65L53.2,89.1a2.741,2.741,0,0,0,4.924-.465l3.888-11.326,10.453,3.1a2.751,2.751,0,0,0,3.121-3.976Z" transform="translate(0)" fill="#080031"/>
      <path id="Path_128650" data-name="Path 128650" d="M35.832,27.768a2.685,2.685,0,0,0-.768,2.461l1.2,6.118-5.815-2.853a2.7,2.7,0,0,0-2.481.035l-5.706,3.05.962-6.171a2.7,2.7,0,0,0-.855-2.428l-4.585-4.209,6.3-1a2.7,2.7,0,0,0,2.016-1.5l2.782-5.744,3,5.653a2.718,2.718,0,0,0,2.069,1.429l6.333.784Zm10.684-9.08-10.507-1.3L31.176,8.235a2.627,2.627,0,0,0-2.39-1.409h-.053a2.659,2.659,0,0,0-2.408,1.5L21.81,17.636,11.357,19.3A2.667,2.667,0,0,0,9.217,21.2a2.719,2.719,0,0,0,.731,2.784l7.671,7.027L16.031,41.146a2.573,2.573,0,0,0,.91,2.6,3,3,0,0,0,3.068.213L29.3,39.006l9.472,4.656A2.745,2.745,0,0,0,42.646,40.7L40.683,30.639l7.4-7.295a2.759,2.759,0,0,0-1.57-4.656" transform="translate(8.828 6.624)" fill="#80057c"/>
    </g>
  </g>
</svg>
