<svg id="training-icon" xmlns="http://www.w3.org/2000/svg" width="90.176" height="90.177" viewBox="0 0 90.176 90.177">
  <g id="Group_129159" data-name="Group 129159" transform="translate(0 0)">
    <path id="Path_128645" data-name="Path 128645" d="M8.222,10.871H29.638a2.642,2.642,0,0,0,0-5.285H8.222a2.642,2.642,0,0,0,0,5.285" transform="translate(5.745 5.737)" fill="#80057c"/>
    <path id="Path_128646" data-name="Path 128646" d="M48.045,11.165H8.222a2.642,2.642,0,0,0,0,5.285H48.045a2.642,2.642,0,0,0,0-5.285" transform="translate(5.745 11.468)" fill="#80057c"/>
    <path id="Path_128647" data-name="Path 128647" d="M39.343,16.751H8.223a2.642,2.642,0,0,0,0,5.285h31.12a2.642,2.642,0,0,0,0-5.285" transform="translate(5.746 17.205)" fill="#80057c"/>
    <path id="Path_128648" data-name="Path 128648" d="M84.894,84.892H61.874V55.215l11.5-5.759,11.5,5.759V84.892ZM58.051,51.217a2.637,2.637,0,0,0-1.18,1.18l-2.1,4.192H26.912L21.98,46.725a2.639,2.639,0,0,0-4.719,2.362l3.752,7.5H5.285V5.285H70.751V24.34c-10.78,2.309-13.493,16.61-4.316,22.7ZM56.589,75.541a7.574,7.574,0,0,1-6.515,3.7H36.6a3.02,3.02,0,0,1,0-6.041H50.743a2.621,2.621,0,0,0,2.36-1.462l3.487-6.975ZM29.553,61.874h22.58L49.1,67.915H36.6a8.167,8.167,0,0,0-3.61.827ZM80.649,36.6a7.269,7.269,0,0,1-7.257,7.255c-9.617-.369-9.617-14.159,0-14.53A7.3,7.3,0,0,1,80.649,36.6m8.066,14.618-8.366-4.192c9.177-6.094,6.446-20.395-4.316-22.7V2.641A2.638,2.638,0,0,0,73.392,0H2.643A2.638,2.638,0,0,0,0,2.641V59.23a2.64,2.64,0,0,0,2.643,2.643H23.654L29.079,72.7A8.343,8.343,0,0,0,36.6,84.5H50.074a12.759,12.759,0,0,0,6.515-1.762v4.792a2.638,2.638,0,0,0,2.643,2.641h28.3a2.638,2.638,0,0,0,2.641-2.641V53.577a2.621,2.621,0,0,0-1.462-2.36" transform="translate(0 0)" fill="#080031"/>
  </g>
</svg>
