<svg id="in" xmlns="http://www.w3.org/2000/svg" width="36" height="36" viewBox="0 0 36 36">
  <rect id="Rectangle_13841" data-name="Rectangle 13841" width="36" height="36" rx="2" fill="none"/>
  <path id="t" d="M323,166.367a8.917,8.917,0,0,1-2.71.795,5.013,5.013,0,0,0,2.075-2.792,9.08,9.08,0,0,1-3,1.223A4.568,4.568,0,0,0,315.923,164a4.892,4.892,0,0,0-4.717,5.049,5.363,5.363,0,0,0,.122,1.149,13.123,13.123,0,0,1-9.727-5.277,5.315,5.315,0,0,0-.638,2.541,5.149,5.149,0,0,0,2.1,4.2,4.489,4.489,0,0,1-2.139-.63v.062a4.976,4.976,0,0,0,3.787,4.951,4.324,4.324,0,0,1-1.243.178,4.416,4.416,0,0,1-.888-.09,4.773,4.773,0,0,0,4.408,3.5A9.041,9.041,0,0,1,300,181.734,12.752,12.752,0,0,0,307.234,184c8.68,0,13.426-7.692,13.426-14.365,0-.22,0-.439-.012-.654A9.941,9.941,0,0,0,323,166.367" transform="translate(-293.5 -156)" fill="#80057c" stroke="rgba(0,0,0,0)" stroke-miterlimit="10" stroke-width="1" fill-rule="evenodd"/>
</svg>
