<svg xmlns="http://www.w3.org/2000/svg" xmlns:xlink="http://www.w3.org/1999/xlink" width="438.367" height="338.838" viewBox="0 0 438.367 338.838">
  <defs>
    <linearGradient id="linear-gradient" x1="0.777" y1="0.36" x2="0.868" y2="1" gradientUnits="objectBoundingBox">
      <stop offset="0" stop-color="#f5f9fe"/>
      <stop offset="1" stop-color="#f5f9fe" stop-opacity="0"/>
    </linearGradient>
  </defs>
  <g id="_404_svg" data-name="404_svg" transform="translate(-700.003 -862.764)">
    <path id="Path_108617" data-name="Path 108617" d="M463.431,629.8c75.372-4.806,135.719-48.672,159.951-110.046,25.306-64.1,15.846-137-45.673-179.4-71.677-49.4-171-66.045-248.1-23.06-90.578,50.5-158.336,141.955-121.1,228.91,34.663,80.946,154.615,89.988,254.92,83.593" transform="translate(501.91 570.148)" fill="url(#linear-gradient)"/>
    <g id="Group_56609" data-name="Group 56609" transform="translate(-5)">
      <path id="Path_108627" data-name="Path 108627" d="M-190.806-11.682a1.043,1.043,0,0,1-1.18-1.18V-24.9a3.287,3.287,0,0,1,.236-1.416L-167.678-79.3a1.69,1.69,0,0,1,1.652-.944h14.986q1.18,0,.826,1.18l-24.072,52.746v.354h14.75a.626.626,0,0,0,.708-.708V-44.014a1.043,1.043,0,0,1,1.18-1.18h13.688a1.043,1.043,0,0,1,1.18,1.18v17.346a.626.626,0,0,0,.708.708h5.31a1.043,1.043,0,0,1,1.18,1.18v11.918a1.043,1.043,0,0,1-1.18,1.18h-5.31a.626.626,0,0,0-.708.708V-1.18A1.043,1.043,0,0,1-143.96,0h-13.688a1.043,1.043,0,0,1-1.18-1.18v-9.794a.626.626,0,0,0-.708-.708Zm68.2-3.422A18.069,18.069,0,0,1-123.372-18q-.294-1.593-.529-4.248t-.353-6.9q-.118-4.248-.118-10.974t.118-10.974q.118-4.248.353-6.9t.529-4.248a18.069,18.069,0,0,1,.766-2.891,22.78,22.78,0,0,1,8.536-12.1q6.063-4.307,15.6-4.307t15.6,4.307a22.78,22.78,0,0,1,8.536,12.1,18.07,18.07,0,0,1,.766,2.891q.294,1.593.529,4.248t.353,6.9q.118,4.248.118,10.974t-.118,10.974q-.118,4.248-.353,6.9T-73.57-18a18.069,18.069,0,0,1-.766,2.891,22.78,22.78,0,0,1-8.536,12.1Q-88.935,1.3-98.471,1.3t-15.6-4.307A22.78,22.78,0,0,1-122.606-15.1Zm15.939-2.95q1.783,5.428,8.2,5.428t8.2-5.428a17.061,17.061,0,0,0,.416-1.888,32.877,32.877,0,0,0,.3-3.363q.119-2.3.178-6.254t.059-10.561q0-6.608-.059-10.561t-.178-6.254a32.877,32.877,0,0,0-.3-3.363,17.061,17.061,0,0,0-.416-1.888q-1.783-5.428-8.2-5.428t-8.2,5.428a17.061,17.061,0,0,0-.416,1.888,32.876,32.876,0,0,0-.3,3.363q-.119,2.3-.178,6.254t-.059,10.561q0,6.608.059,10.561t.178,6.254a32.876,32.876,0,0,0,.3,3.363A17.061,17.061,0,0,0-106.666-18.054Zm47.076,6.372a1.043,1.043,0,0,1-1.18-1.18V-24.9a3.287,3.287,0,0,1,.236-1.416L-36.462-79.3a1.69,1.69,0,0,1,1.652-.944h14.986q1.18,0,.826,1.18L-43.07-26.314v.354h14.75a.626.626,0,0,0,.708-.708V-44.014a1.043,1.043,0,0,1,1.18-1.18h13.688a1.043,1.043,0,0,1,1.18,1.18v17.346a.626.626,0,0,0,.708.708h5.31a1.043,1.043,0,0,1,1.18,1.18v11.918a1.043,1.043,0,0,1-1.18,1.18h-5.31a.626.626,0,0,0-.708.708V-1.18A1.043,1.043,0,0,1-12.744,0H-26.432a1.043,1.043,0,0,1-1.18-1.18v-9.794a.626.626,0,0,0-.708-.708Z" transform="translate(1004.687 1087.602)" fill="#80057c"/>
      <g id="Group_56608" data-name="Group 56608" transform="translate(908.793 922.485)">
        <rect id="Rectangle_14329" data-name="Rectangle 14329" width="16" height="69" rx="8" transform="translate(115.894 80.966)" fill="#80057c"/>
        <circle id="Ellipse_11142" data-name="Ellipse 11142" cx="8" cy="8" r="8" transform="translate(115.894 158.966)" fill="#80057c"/>
      </g>
    </g>
  </g>
</svg>
