<svg xmlns="http://www.w3.org/2000/svg" width="26" height="26" viewBox="0 0 26 26">
  <g id="plus" transform="translate(1 1)">
    <g id="Vector" transform="translate(0 11.25)" fill="#fff">
      <path d="M 22.66666984558105 2 L 1.333330035209656 2 C 0.2881599962711334 2 -0.5 1.46262001991272 -0.5 0.75 C -0.5 0.03737999871373177 0.2881599962711334 -0.5 1.333330035209656 -0.5 L 22.66666984558105 -0.5 C 23.71183967590332 -0.5 24.5 0.03737999871373177 24.5 0.75 C 24.5 1.46262001991272 23.71183967590332 2 22.66666984558105 2 Z" stroke="none"/>
      <path d="M 22.66666984558105 1.5 C 23.39555931091309 1.5 24 1.159999966621399 24 0.75 C 24 0.3400000035762787 23.39555931091309 -1.110223024625157e-16 22.66666984558105 -1.110223024625157e-16 L 1.333330035209656 -1.110223024625157e-16 C 0.604449987411499 -1.110223024625157e-16 -1.77635683940025e-15 0.3400000035762787 -1.77635683940025e-15 0.75 C -1.77635683940025e-15 1.159999966621399 0.604449987411499 1.5 1.333330035209656 1.5 L 22.66666984558105 1.5 M 22.66666984558105 2.5 L 1.333330035209656 2.5 C 0.003109999932348728 2.5 -1 1.747660040855408 -1 0.75 C -1 -0.2476599961519241 0.003109999932348728 -1 1.333330035209656 -1 L 22.66666984558105 -1 C 23.99688911437988 -1 25 -0.2476599961519241 25 0.75 C 25 1.747660040855408 23.99688911437988 2.5 22.66666984558105 2.5 Z" stroke="none" fill="#fff"/>
    </g>
    <g id="Vector-2" data-name="Vector" transform="translate(11.25)" fill="#fff">
      <path d="M 0.75 24.5 C 0.03737999871373177 24.5 -0.5 23.71183967590332 -0.5 22.66666984558105 L -0.5 1.333330035209656 C -0.5 0.2881599962711334 0.03737999871373177 -0.5 0.75 -0.5 C 1.46262001991272 -0.5 2 0.2881599962711334 2 1.333330035209656 L 2 22.66666984558105 C 2 23.71183967590332 1.46262001991272 24.5 0.75 24.5 Z" stroke="none"/>
      <path d="M 0.75 24 C 1.159999966621399 24 1.5 23.39555931091309 1.5 22.66666984558105 L 1.5 1.333330035209656 C 1.5 0.604449987411499 1.159999966621399 -1.77635683940025e-15 0.75 -1.77635683940025e-15 C 0.3400000035762787 -1.77635683940025e-15 -1.110223024625157e-16 0.604449987411499 -1.110223024625157e-16 1.333330035209656 L -1.110223024625157e-16 22.66666984558105 C -1.110223024625157e-16 23.39555931091309 0.3400000035762787 24 0.75 24 M 0.75 25 C -0.2476599961519241 25 -1 23.99688911437988 -1 22.66666984558105 L -1 1.333330035209656 C -1 0.003109999932348728 -0.2476599961519241 -1 0.75 -1 C 1.747660040855408 -1 2.5 0.003109999932348728 2.5 1.333330035209656 L 2.5 22.66666984558105 C 2.5 23.99688911437988 1.747660040855408 25 0.75 25 Z" stroke="none" fill="#fff"/>
    </g>
  </g>
</svg>
