<svg xmlns="http://www.w3.org/2000/svg" width="20.442" height="22.538" viewBox="0 0 20.442 22.538">
  <g id="receipt-edit" transform="translate(-2.75 -1.25)">
    <path id="Path_128623" data-name="Path 128623" d="M21.921,12.055V7.449C21.921,3.092,20.9,2,16.806,2H8.614C4.519,2,3.5,3.092,3.5,7.449V19.624c0,2.876,1.582,3.557,3.5,1.5l.011-.011a1.908,1.908,0,0,1,3.012.162l1.094,1.46" transform="translate(0 0)" fill="none" stroke="#fff" stroke-linecap="round" stroke-linejoin="round" stroke-width="1.5"/>
    <path id="Path_128624" data-name="Path 128624" d="M8,7h8" transform="translate(0.673 0.406)" fill="none" stroke="#fff" stroke-linecap="round" stroke-linejoin="round" stroke-width="1.5"/>
    <path id="Path_128625" data-name="Path 128625" d="M9,11h6" transform="translate(0.68 0.731)" fill="none" stroke="#fff" stroke-linecap="round" stroke-linejoin="round" stroke-width="1.5"/>
    <path id="Path_128626" data-name="Path 128626" d="M18.211,14.77l-3.54,3.54a1.232,1.232,0,0,0-.3.59l-.19,1.35a.635.635,0,0,0,.76.76l1.35-.19a1.189,1.189,0,0,0,.59-.3l3.54-3.54a1.365,1.365,0,0,0,0-2.22A1.36,1.36,0,0,0,18.211,14.77Z" transform="translate(1.421 1.558)" fill="none" stroke="#fff" stroke-linecap="round" stroke-linejoin="round" stroke-miterlimit="10" stroke-width="1.5"/>
    <path id="Path_128627" data-name="Path 128627" d="M17.7,15.28a3.185,3.185,0,0,0,2.22,2.22" transform="translate(1.421 1.22)" fill="none" stroke="#fff" stroke-linecap="round" stroke-linejoin="round" stroke-miterlimit="10" stroke-width="1.5"/>
  </g>
</svg>
