<svg xmlns="http://www.w3.org/2000/svg" width="30" height="30" viewBox="0 0 30 30">
  <g id="timer" transform="translate(-1103 -1337)">
    <circle id="Ellipse_11174" data-name="Ellipse 11174" cx="15" cy="15" r="15" transform="translate(1103 1337)" fill="#80057c" opacity="0.1"/>
    <g id="timer-2" data-name="timer" transform="translate(1108.526 1342.526)">
      <g id="vuesax_outline_timer" data-name="vuesax/outline/timer">
        <g id="timer-3" data-name="timer">
          <path id="Vector" d="M8.288,16.974H3.173a2.964,2.964,0,0,1-3-1.7,3.2,3.2,0,0,1,1.011-3.45L4.846,8.487,1.183,5.147A3.2,3.2,0,0,1,.173,1.7a2.953,2.953,0,0,1,3-1.7H8.288a2.964,2.964,0,0,1,3,1.7,3.2,3.2,0,0,1-1.011,3.45L6.615,8.487l3.671,3.339a3.218,3.218,0,0,1,1.011,3.45A2.982,2.982,0,0,1,8.288,16.974ZM5.73,9.284,1.98,12.695a2.078,2.078,0,0,0-.7,2.147c.237.608.908.947,1.895.947H8.288c.987,0,1.658-.332,1.895-.947a2.063,2.063,0,0,0-.7-2.147Zm-2.558-8.1c-.987,0-1.658.332-1.895.947a2.063,2.063,0,0,0,.7,2.147L5.73,7.689,9.48,4.279a2.078,2.078,0,0,0,.7-2.147c-.237-.608-.908-.947-1.895-.947Z" transform="translate(3.743 0.987)" fill="#80057c"/>
          <path id="Vector-2" data-name="Vector" d="M0,0H18.947V18.947H0Z" fill="none" opacity="0"/>
        </g>
      </g>
    </g>
  </g>
</svg>
