<svg xmlns="http://www.w3.org/2000/svg" xmlns:xlink="http://www.w3.org/1999/xlink" width="100" height="100" viewBox="0 0 100 100">
  <defs>
    <linearGradient id="linear-gradient" x1="2.642" y1="-0.097" x2="0.693" y2="1.808" gradientUnits="objectBoundingBox">
      <stop offset="0" stop-color="#080031"/>
      <stop offset="1" stop-color="#80057c"/>
    </linearGradient>
  </defs>
  <g id="icon1" transform="translate(4.744 0)">
    <rect id="base" width="100" height="100" transform="translate(-4.744 0)" fill="none"/>
    <g id="Group_56535" data-name="Group 56535" transform="translate(-0.745 0)">
      <path id="Path_108503" data-name="Path 108503" d="M45.326,15.485A7.742,7.742,0,1,1,53.07,7.742a7.689,7.689,0,0,1-7.743,7.742m0-12.051a4.31,4.31,0,1,0,4.31,4.311,4.317,4.317,0,0,0-4.31-4.311Z" transform="translate(0.379)" fill="url(#linear-gradient)"/>
      <path id="Path_108504" data-name="Path 108504" d="M63.067,18.876a6.614,6.614,0,1,1,.191,0Zm0-9.982a3.276,3.276,0,1,0,3.276,3.277,3.281,3.281,0,0,0-3.276-3.277Z" transform="translate(0.568 0.055)" fill="url(#linear-gradient)"/>
      <path id="Path_108505" data-name="Path 108505" d="M27.567,18.876a6.614,6.614,0,1,1,.191,0Zm0-9.982a3.276,3.276,0,1,0,3.276,3.277,3.281,3.281,0,0,0-3.276-3.277Z" transform="translate(0.21 0.055)" fill="url(#linear-gradient)"/>
      <path id="Path_108506" data-name="Path 108506" d="M40.015,62.848a3.309,3.309,0,0,1-3.25-3.329V41L35.73,39.9l-.581.617V55.745A3.041,3.041,0,0,1,32.166,58.8H23.03a3.036,3.036,0,0,1-2.981-3.052V40.514s-.439-.448-.584-.593c-.938-.946-1.75-1.766-1.75-3.062V25.412a4.494,4.494,0,0,1,4.394-4.54H33.095a4.179,4.179,0,0,1,.788.086l.393.08.168-.364a5.018,5.018,0,0,1,4.452-2.9H52.166a5.014,5.014,0,0,1,4.447,2.9l.168.365.394-.081a4.108,4.108,0,0,1,.788-.086H68.952a4.489,4.489,0,0,1,4.392,4.538V36.862c0,1.3-.812,2.115-1.754,3.062l-.581.591V55.745A3.027,3.027,0,0,1,68.024,58.8h-9.14A3.035,3.035,0,0,1,55.9,55.744V40.521l-.577-.621-1.038,1.095V59.518a3.305,3.305,0,0,1-3.242,3.333ZM38.862,21.21A1.608,1.608,0,0,0,37.383,22.9V36.655l.741.752c1.123,1.112,2.081,2.061,2.081,3.524V59.415h10.65V40.929c0-1.468.958-2.42,2.068-3.523.219-.218.409-.407.6-.605l.14-.146V22.9a1.618,1.618,0,0,0-1.5-1.691H38.883ZM57.932,24.3a.959.959,0,0,0-.772.509l-.059.111V36.791l.545.559c.909.915,1.69,1.7,1.69,2.995V55.363h8.238V40.344c0-1.3.809-2.113,1.747-3.059l.585-.6V25.413a1.038,1.038,0,0,0-.93-1.107l-11.025,0Zm-35.868.006a1.047,1.047,0,0,0-.918,1.1V36.69s.439.449.586.594c.937.943,1.748,1.761,1.748,3.061V55.363h8.238V40.344c0-1.292.773-2.076,1.67-2.982.16-.161.561-.575.561-.575V24.925l-.06-.111a.965.965,0,0,0-.8-.508h-11Z" transform="translate(0.179 0.179)" fill="url(#linear-gradient)"/>
      <path id="Path_108507" data-name="Path 108507" d="M51.409,99.643a1.72,1.72,0,0,1-1.717-1.717V87.9a1.72,1.72,0,0,1,1.717-1.717h1.265l.055-9.732a6.925,6.925,0,0,1,.449-2.444A14.911,14.911,0,0,1,66.635,63.933a1.272,1.272,0,0,0,.8-.338l6.437-5.987a5.937,5.937,0,0,1,3.036-1.5l.272-.047L78.722,52.4a2.389,2.389,0,0,0,.037-1.71,12.2,12.2,0,0,1,6.4-15.139,2.877,2.877,0,0,1,.735-.249,2.965,2.965,0,0,1,.565-.056A2.915,2.915,0,0,1,89.3,37.6a93.721,93.721,0,0,1,.812,29.635,8.317,8.317,0,0,1-2.443,4.822L74.594,84.641a2.357,2.357,0,0,0-.559.872l-.245.677h1.882a1.719,1.719,0,0,1,1.716,1.717V97.928a1.719,1.719,0,0,1-1.716,1.717Zm1.72-3.431H73.953v-6.59H53.129ZM77.978,59.438a2.62,2.62,0,0,0-1.782.7l-6.439,5.988a4.682,4.682,0,0,1-2.974,1.249,11.476,11.476,0,0,0-10.676,8.7l-.016.062L56.107,86.2l14.316,0,.044-.455a5.731,5.731,0,0,1,1.749-3.573L85.288,69.584a4.8,4.8,0,0,0,1.417-2.8l.033-.219a90.329,90.329,0,0,0-.546-26.876l-.13-.757-.643.418a8.617,8.617,0,0,0-3.408,10.242,5.83,5.83,0,0,1-.128,4.146l-1.219,2.888.367.228a4.4,4.4,0,0,1,2.021,3.014,6.087,6.087,0,0,1-1.533,5.01l-8.036,8.9a1.718,1.718,0,0,1-2.549-2.3l8.035-8.895a2.7,2.7,0,0,0,.706-2.085,1.069,1.069,0,0,0-.649-.841,2.574,2.574,0,0,0-1.045-.218" transform="translate(0.501 0.355)" fill="url(#linear-gradient)"/>
      <path id="Path_108508" data-name="Path 108508" d="M15.242,99.639a1.72,1.72,0,0,1-1.717-1.718V87.9a1.72,1.72,0,0,1,1.717-1.717h1.879l-.246-.678a2.342,2.342,0,0,0-.56-.87L3.241,72.053A8.28,8.28,0,0,1,.8,67.232l-.036-.256-.035-.335A93.687,93.687,0,0,1,1.62,37.606a2.937,2.937,0,0,1,.248-.735A2.9,2.9,0,0,1,5.75,35.556,12.208,12.208,0,0,1,12.161,50.7a2.391,2.391,0,0,0,.038,1.711l1.546,3.658.272.047a5.937,5.937,0,0,1,3.036,1.5L23.494,63.6a1.234,1.234,0,0,0,.788.336A14.915,14.915,0,0,1,37.727,74.012a6.955,6.955,0,0,1,.454,2.444l.054,9.734h1.261a1.72,1.72,0,0,1,1.717,1.717V97.925a1.72,1.72,0,0,1-1.717,1.717Zm1.717-3.425H37.777V89.622H16.959ZM4.722,39.69A90.546,90.546,0,0,0,4.2,66.784a4.811,4.811,0,0,0,1.417,2.8L18.7,82.161a5.734,5.734,0,0,1,1.75,3.574l.045.454H34.8V76.022l-.016-.064a11.489,11.489,0,0,0-10.669-8.587c-1.818-.084-2.416-.649-6.312-4.327l-.184-.174C16.8,62.1,15.84,61.193,14.7,60.133a2.628,2.628,0,0,0-2.829-.471,1.049,1.049,0,0,0-.635.8,2.725,2.725,0,0,0,.705,2.13l8.028,8.892a1.717,1.717,0,0,1-1.274,2.87,1.725,1.725,0,0,1-1.275-.567L9.4,64.885a6.1,6.1,0,0,1-1.534-5.022,4.4,4.4,0,0,1,2.021-3.005l.368-.227L9.032,53.742A5.825,5.825,0,0,1,8.9,49.592,8.619,8.619,0,0,0,5.5,39.352l-.644-.419Z" transform="translate(0 0.356)" fill="url(#linear-gradient)"/>
    </g>
  </g>
</svg>
