<svg xmlns="http://www.w3.org/2000/svg" width="123.543" height="141.001" viewBox="0 0 123.543 141.001">
  <g id="counter-icon2" transform="translate(-967.099 -3630.457)">
    <path id="Path_128635" data-name="Path 128635" d="M8005.477,18130.471l-18.7-82.744h-61.662l-17.5,82.744Z" transform="translate(-6927.167 -14386.066)" fill="#fff" stroke="#080031" stroke-linejoin="round" stroke-width="6"/>
    <path id="Path_128633" data-name="Path 128633" d="M7989.288,18038.939h-60.866" transform="translate(-6930.074 -14385.699)" fill="none" stroke="#080031" stroke-linecap="round" stroke-linejoin="round" stroke-width="6"/>
    <path id="Path_128634" data-name="Path 128634" d="M7892.1,18166.7v-23.869l41.99-15.514v-9.408s-.342-3.246,1.249-4.178,5.116.457,5.116.457l12.333,5.967h2.785l11.139-5.967s3.051-.914,4.443,0,1.126,3.654,1.126,3.654v9.475l43.362,15.514v23.869Z" transform="translate(-6925 -14395.239)" fill="#1e1148"/>
    <path id="Path_128636" data-name="Path 128636" d="M8480.1,18053.258v31.875l-17.814,8.629-18.751-8.629v-31.875Z" transform="translate(-7433.036 -14380.447)" fill="none" stroke="#080031" stroke-linejoin="round" stroke-width="6"/>
    <path id="Path_128637" data-name="Path 128637" d="M7987.4,18029.287h-57.837s4.9-17.75,29.99-17.137S7987.4,18029.287,7987.4,18029.287Z" transform="translate(-6930.232 -14381.678)" fill="#80057c"/>
    <circle id="Ellipse_11175" data-name="Ellipse 11175" cx="3.011" cy="3.011" r="3.011" transform="translate(1025.515 3730.721)" fill="#80057c"/>
    <circle id="Ellipse_11176" data-name="Ellipse 11176" cx="3.011" cy="3.011" r="3.011" transform="translate(1025.515 3741.905)" fill="#80057c"/>
  </g>
</svg>
