<svg xmlns="http://www.w3.org/2000/svg" width="170.266" height="130.173" viewBox="0 0 170.266 130.173">
  <g id="counter-icon1" transform="translate(-1460.433 -3649.76)">
    <path id="Path_128628" data-name="Path 128628" d="M8492.314,18122.891H8551.7v-88.131H8389.433v88.131h15.13" transform="translate(-6925 -14381)" fill="#c6bfcd"/>
    <path id="Path_128630" data-name="Path 128630" d="M8486.859,18121.648h56.166V18106.9h-62.6l-22.7,12.1-25.137-12.1-10.8,12.1v51.063h10.8v-13.238h54.262Z" transform="translate(-6930.892 -14394.13)" fill="#97919c"/>
    <path id="Path_128632" data-name="Path 128632" d="M8492.314,18122.891H8551.7v-88.131H8389.433v88.131h15.13" transform="translate(-6925 -14381)" fill="none" stroke="#080031" stroke-width="8"/>
    <path id="Path_128629" data-name="Path 128629" d="M8480.413,18053.258v32.148l-17.967,8.7-18.912-8.7v-32.148Z" transform="translate(-6934.847 -14384.367)" fill="#97919c"/>
    <path id="Path_128643" data-name="Path 128643" d="M8480.413,18053.258v32.148l-17.967,8.7-18.912-8.7v-32.148Z" transform="translate(-6934.847 -14384.367)" fill="none" stroke="#080031" stroke-width="8"/>
    <path id="Path_128631" data-name="Path 128631" d="M8486.859,18121.648h56.166V18106.9h-62.6l-22.7,12.1-25.137-12.1-10.8,12.1v51.063h10.8v-13.238h54.262Z" transform="translate(-6930.892 -14394.13)" fill="none" stroke="#080031" stroke-width="8"/>
  </g>
</svg>
