<svg xmlns="http://www.w3.org/2000/svg" width="30" height="30" viewBox="0 0 30 30">
  <g id="phoneWit" transform="translate(12 12)">
    <g id="phone-outline" transform="translate(-12 -12)">
      <g id="phone">
        <rect id="Rectangle_13793" data-name="Rectangle 13793" width="30" height="30" fill="#fff" opacity="0"/>
        <path id="Path_107166" data-name="Path 107166" d="M22.011,28A20.041,20.041,0,0,1,2,7.98,5.979,5.979,0,0,1,7.977,2a5.117,5.117,0,0,1,1,.091,4.923,4.923,0,0,1,.936.234,1.3,1.3,0,0,1,.845.975l1.78,7.8a1.3,1.3,0,0,1-.338,1.2c-.169.182-.182.195-1.78,1.027a12.88,12.88,0,0,0,6.328,6.357c.845-1.612.858-1.625,1.04-1.794a1.3,1.3,0,0,1,1.2-.338l7.8,1.781a1.3,1.3,0,0,1,.936.845,5.644,5.644,0,0,1,.247.949,6.2,6.2,0,0,1,.078.988A5.979,5.979,0,0,1,22.011,28ZM7.977,4.6A3.392,3.392,0,0,0,4.6,7.98,17.429,17.429,0,0,0,22.011,25.4a3.392,3.392,0,0,0,3.378-3.38v-.429L19.36,20.2l-.377.715c-.585,1.131-1.014,1.95-2.105,1.508a15.4,15.4,0,0,1-9.33-9.373c-.468-1.014.416-1.482,1.533-2.067l.715-.351L8.406,4.6Z" transform="translate(0 0)" fill="#fff"/>
      </g>
    </g>
  </g>
</svg>
