<svg xmlns="http://www.w3.org/2000/svg" width="135.951" height="86.63" viewBox="0 0 135.951 86.63">
  <g id="ser-icon2" transform="translate(-910.573 2515.2)">
    <g id="Group_129083" data-name="Group 129083" transform="translate(910.573 -2514.785)">
      <path id="Subtraction_2" data-name="Subtraction 2" d="M14.248,85.8h0c-.118-1.519-.629-9.273.871-12.807l2.555,1.01C16.567,76.6,16.812,83.254,17,85.6l-2.751.206ZM0,85.754v0c0-.144.12-14.574,1.687-19.47,1.238-3.859,2.44-6.527,4.921-8.744l-.04.008-.825.139,1.121-2.307c2.577-5.222,7.589-7.87,14.895-7.87,1.009,0,2.077.051,3.173.152a.206.206,0,0,1,.09.017l.031.006C21.382,40,19.822,29.526,20.774,18.945c.519-5.789,2.309-10.338,5.318-13.519S33.308.447,38.6.076V0h.057c.325,0,.661,0,.973.019h.073l.182.008c.121,0,.243-.008.361-.014.156-.007.316-.015.479-.015V.073l.008,0c5.3.37,9.512,2.171,12.519,5.352s4.8,7.736,5.309,13.526c.047.47.108,2.358.156,3.874v.009c.025.791.048,1.474.061,1.74l.019-.019A63.411,63.411,0,0,1,57,39.588l0,.005.044-.017A22.879,22.879,0,0,1,59.522,50.63l-.049.8,3.946,1.6c1.007.434,1.868.824,2.634,1.194l-.92,2.528c-.785-.386-1.677-.792-2.808-1.28l-3.166-1.285a11.253,11.253,0,0,1-2.706,5.233,16.018,16.018,0,0,1-4.636,3.454,26.562,26.562,0,0,1-10.138,2.7L39,65.714l1.444-2.19a4.15,4.15,0,0,0-.8-3.8h-.006a39.869,39.869,0,0,1-10.217,1.4h-.426l-.533-.017-.384-.353c-1.879-1.736-4.653-2.9-8.246-3.471L18.8,57.219c-1.762-.119-4.709-.317-5.946-.317-.123,0-.227,0-.31.006h-.017c-5.008,2.412-6.44,4.653-8.2,10.162-1.3,4.041-1.569,15.093-1.569,17.1L0,85.753ZM22.081,55.026H22.1a17.5,17.5,0,0,1,7.462,3.443c2.689-.037,16.349-.677,21.119-9.743a51.48,51.48,0,0,0,5.309-21.451L56,27.264c0-1.753-.034-6.624-.176-8.078C54.87,8.431,49.586,3.039,39.672,2.7l-.049,0c-9.875.377-15.143,5.767-16.106,16.479-.982,10.969.848,21.837,4.9,29.073a20.839,20.839,0,0,0,3.031.235,13.892,13.892,0,0,0,7.2-1.87c-6.42-.815-10.691-11.058-10.733-11.161-1.455-3.429-1.8-12.663-1.342-15.4l.165-1.667.367-.338c.052-.051,5.5-5.053,12.646-5.053,4.268,0,8.244,1.784,11.817,5.3l.3.283.9,4.508a32.425,32.425,0,0,1,.11,3.689,7.565,7.565,0,0,1-.037.923,22.131,22.131,0,0,1-1.41,7.236l-.04.108a29.533,29.533,0,0,1-6.158,8.927l.089.069a16.417,16.417,0,0,1-13.947,7.074,28.812,28.812,0,0,1-5.544-.611l-.027-.005c-.437-.082-.852-.158-1.12-.194l-.038,0c-.72-.065-1.808-.162-3.078-.162-4.843,0-8.469,1.41-10.78,4.191.275-.021.619-.03,1.021-.03,2.523,0,7.343.384,10.263.742l.018-.017ZM39.588,15.634A16.816,16.816,0,0,0,29.38,19.645l-.076.726c-.449,2.687.016,11.4,1.14,14.072a26,26,0,0,0,3.739,6.194c1.285,1.54,3.248,3.376,5.31,3.376.071,0,.143,0,.214-.007,4-.265,8.44-8.149,9.042-9.74l0-.007c.527-1.4,1.761-4.671,1.285-10.818L49.3,19.894A13.932,13.932,0,0,0,39.588,15.634Z" transform="translate(0 0)" fill="#fff"/>
    </g>
    <g id="Group_129084" data-name="Group 129084" transform="translate(967.656 -2515.2)">
      <path id="Union_3" data-name="Union 3" d="M75.98,84.183l.007-.15c.147-3.092.248-8.178-.11-14.847a9.921,9.921,0,0,0-4.011-7.543c-.563.042-1.2.063-1.944.063-3.261,0-5.8-.554-7.544-1.648l-.513-.318a20.126,20.126,0,0,1-7.972-7.855,34.139,34.139,0,0,1-7.415,3.787A22.515,22.515,0,0,1,39,57.016a23.361,23.361,0,0,1-13.643-4.808,20.571,20.571,0,0,1-7.842,7.243l-.05.031c-.355.2-.676.389-.955.572-1.753,1.1-4.291,1.652-7.549,1.652-.745,0-1.384-.021-1.948-.063A9.815,9.815,0,0,0,3,69.185c-.352,6.625-.255,11.732-.11,14.849l.007.157L.18,86.453l-.032-.629c-.138-2.643-.292-9.553.11-16.78A12.233,12.233,0,0,1,3.52,61.191L.754,60.719l3.5-2.146c6.52-4.144,10.382-13.541,10.594-25.78.138-7.213,2.019-12,3.641-14.816a2.606,2.606,0,0,1-.622-4.5,2.607,2.607,0,0,1,2.37-3.695H21.8a14.307,14.307,0,0,1,5.933-6.843A22.4,22.4,0,0,1,39.406,0,22.337,22.337,0,0,1,51.075,2.95a14.374,14.374,0,0,1,5.933,6.835h1.628a2.607,2.607,0,0,1,2.37,3.695,2.606,2.606,0,0,1-.61,4.491c1.777,3.053,3.509,7.806,3.64,14.82.22,12.592,4.253,22.1,11.065,26.087l.043.029,2.949,1.812-2.749.47a12.3,12.3,0,0,1,3.278,7.855c.377,7.09.237,14.169.11,16.921l-.031.665ZM17.59,32.838A47.848,47.848,0,0,1,14.816,48.8a25.436,25.436,0,0,1-6.68,10.233c.289.009.573.014.851.014A11.813,11.813,0,0,0,15.029,57.8l.011-.006c.15-.086.306-.181.471-.281s.35-.213.541-.323c2.368-1.4,5.614-3.331,7.529-7.385a.4.4,0,0,1,.042-.082c1.382-2.959,1.852-6.731,1.4-11.211a82.223,82.223,0,0,1,.443-19.087l.019-.1.114-1.167H21.606C20.007,20.479,17.728,25.12,17.59,32.838ZM53.434,19.326l.022.119.032,1.249c.153,3.014.347,7.716.394,12.952v.023c0,1.537,0,3.127-.017,4.726C53.7,51.556,59.5,55.122,63.337,57.481l.516.319c1.637,1.027,4.258,1.242,6.168,1.242.243,0,.49,0,.739-.011A25.427,25.427,0,0,1,64.06,48.8a47.5,47.5,0,0,1-2.77-15.964c-.135-7.723-2.413-12.361-4.014-14.678H53.32Zm-23.1,32.792a18.621,18.621,0,0,0,8.689,2.217,20.9,20.9,0,0,0,9.1-2.236L47.5,46.115a10.371,10.371,0,0,1-8.128,3.727c-4.336,0-6.954-1.638-8.467-3.21ZM40.271,38.4a1.38,1.38,0,0,1,1.285.9c.128.326.877,1.9,3.42,1.9a9.411,9.411,0,0,0,3.008-.576L48,40.61a1.053,1.053,0,0,1,.117-.024,12.843,12.843,0,0,0,3.014-7.035C51.1,28.1,50.883,23.4,50.78,21.442a2.65,2.65,0,0,0-.8-.113,9.062,9.062,0,0,0-4.537,1.795,1.428,1.428,0,0,1-.823.26h0a1.394,1.394,0,0,1-.745-.212,8.855,8.855,0,0,0-4.731-1.412,8.945,8.945,0,0,0-4.918,1.485,1.36,1.36,0,0,1-.834.262,1.4,1.4,0,0,1-.927-.348A4.848,4.848,0,0,0,29.1,21.806a5.1,5.1,0,0,0-1.192.141,86.2,86.2,0,0,0-.453,11.519h0a.5.5,0,0,1,.017.114,13.3,13.3,0,0,0,3.05,7.13,9.086,9.086,0,0,0,2.71.476c2.652,0,3.36-1.714,3.432-1.91l.005-.014a1.418,1.418,0,0,1,1.283-.867ZM33.527,20.544a12.624,12.624,0,0,1,5.685-1.423,11.313,11.313,0,0,1,5.349,1.357,11.291,11.291,0,0,1,5.471-1.835,5.671,5.671,0,0,1,.809.057l.028-.2.78-.346H27.267l.78.346.094.685a8.246,8.246,0,0,1,.994-.061A7.41,7.41,0,0,1,33.527,20.544ZM54.065,9.786c-2.7-5.212-9.192-7.111-14.66-7.111s-11.958,1.9-14.663,7.111ZM15.638,86.144c-.076-.932-.7-9.222.895-12.965l.121-.284,3.139,1.246-.126.3c-1.08,2.541-.833,9.131-.647,11.455l.025.318-3.381.245Zm44.267.087.021-.316c.146-2.3.276-8.849-.866-11.463l-.13-.3,3.122-1.274.123.282c1.719,3.928,1.135,12.87,1.129,12.959l-.023.311Z" transform="translate(0 0)" fill="#fff"/>
    </g>
  </g>
</svg>
