<svg xmlns="http://www.w3.org/2000/svg" width="100" height="100" viewBox="0 0 100 100">
  <g id="ser-icon3" transform="translate(-0.09 0.95)">
    <rect id="base" width="100" height="100" transform="translate(0.09 -0.95)" fill="none"/>
    <g id="Group_56539" data-name="Group 56539" transform="translate(0.091 -0.95)">
      <g id="Page-1_33_" transform="translate(0)">
        <g id="_x30_34---Outsourcing">
          <path id="Shape_180_" d="M204.912,21.035V22.7a5,5,0,0,0,5,5h10a5,5,0,0,0,5-5V21.035A6.664,6.664,0,0,0,221.013,15,8.33,8.33,0,1,0,208.8,15a6.663,6.663,0,0,0-3.89,6.039Zm10-16.659a5,5,0,1,1-5,5,5,5,0,0,1,5-5Zm-6.664,16.659a3.332,3.332,0,0,1,3.332-3.332h6.664a3.332,3.332,0,0,1,3.332,3.332V22.7a1.666,1.666,0,0,1-1.666,1.666h-10a1.666,1.666,0,0,1-1.666-1.666V21.035Z" transform="translate(-164.929 -1)" fill="#fff"/>
          <path id="Shape_179_" d="M204.912,396.5v1.666a5,5,0,0,0,5,5h10a5,5,0,0,0,5-5V396.5a6.664,6.664,0,0,0-3.89-6.039,8.33,8.33,0,1,0-12.211,0,6.663,6.663,0,0,0-3.89,6.039Zm10-16.66a5,5,0,1,1-5,5A5,5,0,0,1,214.908,379.842Zm-6.664,16.66a3.332,3.332,0,0,1,3.332-3.332h6.664a3.332,3.332,0,0,1,3.332,3.332v1.666a1.666,1.666,0,0,1-1.666,1.666h-10a1.666,1.666,0,0,1-1.666-1.666V396.5Z" transform="translate(-164.929 -303.166)" fill="#fff"/>
          <path id="Shape_178_" d="M5.11,207.067h10a5,5,0,0,0,5-5V200.4a6.664,6.664,0,0,0-3.89-6.039,8.33,8.33,0,1,0-12.211,0A6.663,6.663,0,0,0,.112,200.4v1.666a5,5,0,0,0,5,5Zm5-23.323a5,5,0,1,1-5,5,5,5,0,0,1,5-5ZM3.444,200.4a3.332,3.332,0,0,1,3.332-3.332h6.664a3.332,3.332,0,0,1,3.332,3.332v1.666a1.666,1.666,0,0,1-1.666,1.666h-10a1.666,1.666,0,0,1-1.666-1.666V200.4Z" transform="translate(-0.112 -145.383)" fill="#fff"/>
          <path id="Shape_177_" d="M425.814,194.2a8.33,8.33,0,1,0-12.211,0,6.663,6.663,0,0,0-3.89,6.039V201.9a5,5,0,0,0,5,5h10a5,5,0,0,0,5-5v-1.666a6.664,6.664,0,0,0-3.89-6.039Zm-6.106-10.62a5,5,0,1,1-5,5A5,5,0,0,1,419.708,183.576Zm6.664,18.325a1.666,1.666,0,0,1-1.666,1.666h-10a1.666,1.666,0,0,1-1.666-1.666v-1.666a3.332,3.332,0,0,1,3.332-3.332h6.664a3.332,3.332,0,0,1,3.332,3.332V201.9Z" transform="translate(-329.748 -145.215)" fill="#fff"/>
          <path id="Shape_176_" d="M153.712,174.814A19.991,19.991,0,1,0,173.7,154.823,19.991,19.991,0,0,0,153.712,174.814ZM173.7,158.155c1.211,0,2.8,2.474,3.855,6.664h-7.71C170.9,160.629,172.492,158.155,173.7,158.155Zm4.518,10a43.378,43.378,0,0,1,.448,5h-9.932a43.419,43.419,0,0,1,.448-5Zm12.056,5H182a48.614,48.614,0,0,0-.418-5h7.377A16.484,16.484,0,0,1,190.278,173.148ZM173.7,191.474c-1.211,0-2.8-2.474-3.855-6.664h7.71C176.5,189,174.914,191.474,173.7,191.474Zm-4.518-10a43.381,43.381,0,0,1-.448-5h9.932a43.419,43.419,0,0,1-.448,5Zm-12.056-5H165.4a48.609,48.609,0,0,0,.418,5h-7.377A16.484,16.484,0,0,1,157.129,176.48Zm24.874,0h8.275a16.485,16.485,0,0,1-1.316,5h-7.377A48.711,48.711,0,0,0,182,176.48Zm-16.6-3.332h-8.275a16.485,16.485,0,0,1,1.316-5h7.377A48.716,48.716,0,0,0,165.4,173.148Zm-5,11.662h6.007a24.19,24.19,0,0,0,2,5.786,16.7,16.7,0,0,1-8-5.786ZM179,190.6a24.184,24.184,0,0,0,1.994-5.786H187a16.7,16.7,0,0,1-8,5.786Zm8-25.777h-6.007a24.2,24.2,0,0,0-2-5.786A16.7,16.7,0,0,1,187,164.819Zm-18.592-5.786a24.19,24.19,0,0,0-1.992,5.786h-6.007A16.7,16.7,0,0,1,168.407,159.033Z" transform="translate(-123.725 -124.793)" fill="#fff"/>
          <path id="Shape_175_" d="M32.256,367.548H48.916a1.666,1.666,0,1,0,0-3.332H32.256a6.664,6.664,0,0,1-6.664-6.664v-9.306l2.154,2.154a1.666,1.666,0,0,0,2.356-2.356l-5-5a1.666,1.666,0,0,0-2.356,0l-5,5a1.666,1.666,0,0,0,2.356,2.356l2.154-2.154v9.306A10.005,10.005,0,0,0,32.256,367.548Z" transform="translate(-13.931 -275.878)" fill="#fff"/>
          <path id="Shape_174_" d="M342.7,43.89H326.045a1.666,1.666,0,1,0,0,3.332H342.7a6.664,6.664,0,0,1,6.664,6.664V59.86l-2.154-2.154a1.666,1.666,0,0,0-2.356,2.356l5,5a1.666,1.666,0,0,0,2.356,0l5-5a1.666,1.666,0,0,0-2.356-2.356L352.7,59.86V53.886a10.005,10.005,0,0,0-10-10Z" transform="translate(-261.073 -35.517)" fill="#fff"/>
          <path id="Shape_173_" d="M42.778,33.368v10a1.666,1.666,0,1,0,3.332,0v-10A6.664,6.664,0,0,1,52.773,26.7H65.411l-2.154,2.154a1.666,1.666,0,1,0,2.356,2.356l5-5a1.666,1.666,0,0,0,0-2.356l-5-5a1.666,1.666,0,0,0-2.356,2.356l2.154,2.154H52.774a10.006,10.006,0,0,0-10,10Z" transform="translate(-34.448 -14.999)" fill="#fff"/>
          <path id="Shape_172_" d="M340.755,359.7a1.666,1.666,0,0,0-2.356,0l-5,5a1.666,1.666,0,0,0,0,2.356l5,5a1.666,1.666,0,0,0,2.356-2.356l-2.154-2.154h10.972a10.006,10.006,0,0,0,10-10V344.223a1.666,1.666,0,0,0-3.332,0v13.328a6.664,6.664,0,0,1-6.664,6.664H338.6l2.154-2.154A1.666,1.666,0,0,0,340.755,359.7Z" transform="translate(-267.942 -275.876)" fill="#fff"/>
        </g>
      </g>
    </g>
  </g>
</svg>
