<svg xmlns="http://www.w3.org/2000/svg" width="101.285" height="100.885" viewBox="0 0 101.285 100.885">
  <g id="ser-icon4" transform="translate(0 1)">
    <rect id="base" width="100" height="100" transform="translate(1 -1)" fill="none"/>
    <g id="Group_56538" data-name="Group 56538" transform="translate(0 0)">
      <path id="Path_108509" data-name="Path 108509" d="M69.225,95.213a1.706,1.706,0,0,1-1.7-1.706V80.438A11.69,11.69,0,0,0,55.86,68.762H45.74A11.67,11.67,0,0,0,34.064,80.438V93.507a1.705,1.705,0,1,1-3.411,0V80.438A15.109,15.109,0,0,1,45.74,65.35H55.854A15.109,15.109,0,0,1,70.941,80.438V93.507a1.464,1.464,0,0,1,0,.187,1.621,1.621,0,0,1-1.613,1.523Z" fill="#fff"/>
      <path id="Path_108510" data-name="Path 108510" d="M50.721,61.293A11.508,11.508,0,1,1,62.228,49.784,11.523,11.523,0,0,1,50.721,61.293m0-19.6a8.1,8.1,0,1,0,8.1,8.1,8.106,8.106,0,0,0-8.1-8.1" fill="#fff"/>
      <path id="Path_108511" data-name="Path 108511" d="M50.72,91.013a2.485,2.485,0,0,1,0-4.969,2.57,2.57,0,0,1,1.79.749,2.388,2.388,0,0,1,.694,1.739,2.485,2.485,0,0,1-2.484,2.481" fill="#fff"/>
      <path id="Path_108512" data-name="Path 108512" d="M72.338,99.881H29.091a1.707,1.707,0,0,1,0-3.413h7.825l-1.75-15.392a3.152,3.152,0,0,1,.818-2.609,3.782,3.782,0,0,1,2.853-1.294H62.545a4.072,4.072,0,0,1,2.911,1.294,3.022,3.022,0,0,1,.815,2.618l-1.7,15.439,7.775-.056a1.714,1.714,0,0,1,1.706,1.706,1.481,1.481,0,0,1,0,.188,1.621,1.621,0,0,1-1.613,1.522Zm-33.5-19.45a.514.514,0,0,0-.4.186l1.836,15.9,20.932-.044,1.8-15.8a.611.611,0,0,0-.466-.232Z" fill="#fff"/>
      <path id="Path_108513" data-name="Path 108513" d="M97.246,62.383a1.707,1.707,0,0,1-1.706-1.707V50.406a8.894,8.894,0,0,0-8.878-8.875H78.727a8.894,8.894,0,0,0-8.875,8.875v10.27a1.706,1.706,0,1,1-3.413,0V50.406A12.323,12.323,0,0,1,78.726,38.121h7.936A12.323,12.323,0,0,1,98.953,50.406v10.27a1.711,1.711,0,0,1-1.707,1.707" fill="#fff"/>
      <path id="Path_108514" data-name="Path 108514" d="M82.773,35.775a9.486,9.486,0,1,1,9.486-9.486,9.534,9.534,0,0,1-9.486,9.486m0-15.56a6.074,6.074,0,1,0,6.072,6.074,6.108,6.108,0,0,0-6.072-6.074" fill="#fff"/>
      <path id="Path_108515" data-name="Path 108515" d="M82.773,59.272a1.862,1.862,0,0,1,0-3.724A2,2,0,0,1,84.634,57.4a1.86,1.86,0,0,1-.546,1.325,1.84,1.84,0,0,1-1.315.547" fill="#fff"/>
      <path id="Path_108516" data-name="Path 108516" d="M65.657,66.117a1.705,1.705,0,1,1,0-3.411h6.423L70.8,51.981a3.862,3.862,0,0,1,.809-2.288,2.966,2.966,0,0,1,2.336-1.149l17.386,0a3.488,3.488,0,0,1,2.45,1.138,2.544,2.544,0,0,1,.815,2.3L93.363,62.761l6.369-.055a1.5,1.5,0,0,1,1.551,1.705c0,.056,0,.122,0,.187a1.621,1.621,0,0,1-1.616,1.522ZM75.6,62.75,90,62.706l1.173-10.8-16.787.055Z" fill="#fff"/>
      <path id="Path_108517" data-name="Path 108517" d="M4.252,62.384l-.178-.376-.081.342a1.582,1.582,0,0,1-1.5-1.683V50.406A12.324,12.324,0,0,1,14.776,38.121h7.936A12.32,12.32,0,0,1,35,50.406v10.27a1.706,1.706,0,1,1-3.412,0V50.406a8.892,8.892,0,0,0-8.878-8.875H14.777A8.893,8.893,0,0,0,5.9,50.406v10.27a1.457,1.457,0,0,1,0,.187,1.622,1.622,0,0,1-1.614,1.522Z" fill="#fff"/>
      <path id="Path_108518" data-name="Path 108518" d="M18.667,35.775a9.486,9.486,0,1,1,9.486-9.486,9.535,9.535,0,0,1-9.486,9.486m0-15.56a6.074,6.074,0,1,0,6.074,6.074,6.108,6.108,0,0,0-6.074-6.074v0Z" fill="#fff"/>
      <path id="Path_108519" data-name="Path 108519" d="M18.667,59.272a1.862,1.862,0,0,1,0-3.724,1.887,1.887,0,0,1,1.862,1.861,1.864,1.864,0,0,1-1.862,1.863" fill="#fff"/>
      <path id="Path_108520" data-name="Path 108520" d="M1.707,66.117a1.705,1.705,0,1,1,0-3.411H8.13L6.847,51.981a3.865,3.865,0,0,1,.81-2.288,2.969,2.969,0,0,1,2.336-1.149l17.232,0a3.478,3.478,0,0,1,2.445,1.139,2.541,2.541,0,0,1,.815,2.3L29.254,62.761l6.563-.055a1.622,1.622,0,0,1,1.516,1.714,1.709,1.709,0,0,1-1.706,1.7ZM11.49,62.75l14.4-.044,1.172-10.8-16.786.055Z" fill="#fff"/>
      <path id="Path_108521" data-name="Path 108521" d="M50.719,33.287a1.71,1.71,0,0,1-1.706-1.707V12.051A6.234,6.234,0,0,1,44.5,6.223a6.218,6.218,0,1,1,12.436-.005,6.205,6.205,0,0,1-4.475,5.862l-.037,19.5a1.71,1.71,0,0,1-1.706,1.707m-.1-29.975.049.052a3.1,3.1,0,0,0-1.931.87,2.807,2.807,0,1,0,2.083-.82l-.035-.1Z" fill="#fff"/>
      <path id="Path_108522" data-name="Path 108522" d="M42.783,33.285a1.708,1.708,0,0,1-1.707-1.7V17.507l-4.417-4.133a5.294,5.294,0,0,1-2.2.463h-.164a6.128,6.128,0,0,1-6.129-6.221v-.18A6.152,6.152,0,0,1,34.29,1.4,6.283,6.283,0,0,1,40.6,7.613a5.715,5.715,0,0,1-1.164,3.529l4.54,4.3a1.554,1.554,0,0,1,.511,1.207V31.58a1.707,1.707,0,0,1-1.7,1.7M34.43,4.967h-.053a2.733,2.733,0,1,0,.053,0v0Z" fill="#fff"/>
      <path id="Path_108523" data-name="Path 108523" d="M58.643,33.285a1.865,1.865,0,0,1-1.85-1.692V16.643a1.549,1.549,0,0,1,.516-1.2l4.449-4.6a5.6,5.6,0,0,1-.921-3.224v-.18A6.155,6.155,0,0,1,66.965,1.4a6.218,6.218,0,1,1,.091,12.436l-.193,0a5.3,5.3,0,0,1-2.39-.574l-4.1,4.2L60.361,31.58a1.3,1.3,0,0,1,0,.187,1.62,1.62,0,0,1-1.614,1.521ZM67.059,4.968a2.914,2.914,0,0,0-2.81,2.812c0,.062,0,.122,0,.182a2.7,2.7,0,0,0,2.707,2.621,2.808,2.808,0,1,0,.1-5.615l0-.05Z" fill="#fff"/>
    </g>
  </g>
</svg>
