<svg xmlns="http://www.w3.org/2000/svg" width="100" height="100" viewBox="0 0 100 100">
  <g id="ser-icon5" transform="translate(-4.105 1)">
    <rect id="base" width="100" height="100" transform="translate(4.105 -1)" fill="none"/>
    <path id="Path_108524" data-name="Path 108524" d="M20.168,49.695v2.629A4.25,4.25,0,0,0,22.939,56.3v1.382a4.25,4.25,0,0,0,2.749,3.971v1.391a4.248,4.248,0,0,0,4.243,4.243H33.41a4.248,4.248,0,0,0,4.243-4.243V61.656A4.25,4.25,0,0,0,40.4,57.685V56.232a4.25,4.25,0,0,0,2.591-3.908v-2.63c.407-6.824,2.1-9.717,3.735-12.513a16.734,16.734,0,0,0,2.912-9.658,18.06,18.06,0,0,0-36.12,0,16.734,16.734,0,0,0,2.912,9.658c1.636,2.8,3.328,5.689,3.735,12.514Zm7-19.78H24.9a2.271,2.271,0,1,1,2.271-2.271Zm5.7,18.165H30.295V33.04h2.573Zm7,3.125v1.119a1.119,1.119,0,0,1-1.118,1.118H24.411a1.119,1.119,0,0,1-1.118-1.118V51.2ZM36.16,58.8H27.182a1.12,1.12,0,0,1-1.118-1.118V56.566H37.278v1.118A1.119,1.119,0,0,1,36.16,58.8ZM33.41,64.165H29.931a1.119,1.119,0,0,1-1.118-1.118V61.928h5.716v1.119A1.12,1.12,0,0,1,33.41,64.165ZM31.581,12.587A14.952,14.952,0,0,1,46.516,27.522c0,3.835-1.1,5.708-2.484,8.08a26.526,26.526,0,0,0-4.05,12.478h-3.99V33.04h2.271a5.4,5.4,0,1,0-5.4-5.4v2.271H30.295V27.644a5.4,5.4,0,1,0-5.4,5.4H27.17V48.08H23.18A26.529,26.529,0,0,0,19.13,35.6c-1.388-2.371-2.484-4.245-2.484-8.08A14.951,14.951,0,0,1,31.581,12.587Zm4.411,17.327V27.644a2.271,2.271,0,1,1,2.271,2.271ZM30.019,5.448V1.562a1.562,1.562,0,1,1,3.125,0V5.448a1.562,1.562,0,1,1-3.125,0ZM15.842,6.2a1.562,1.562,0,0,1,2.706-1.562L20.492,8a1.563,1.563,0,1,1-2.706,1.563ZM11.383,18.672a1.562,1.562,0,0,1-2.135.572L5.883,17.3a1.562,1.562,0,1,1,1.563-2.706l3.365,1.943A1.562,1.562,0,0,1,11.383,18.672ZM42.671,8l1.943-3.365A1.562,1.562,0,1,1,47.32,6.2L45.377,9.564A1.562,1.562,0,1,1,42.671,8Zm9.109,10.671a1.563,1.563,0,0,1,.572-2.134l3.365-1.943A1.562,1.562,0,1,1,57.279,17.3l-3.365,1.943a1.562,1.562,0,0,1-2.134-.572Zm1.74,67.065L39.851,75.71a1.563,1.563,0,0,0-2.487,1.26v3.606c-7.384-.2-14.284-2.043-16.716-11.514a1.562,1.562,0,0,0-2.879-.37A16.376,16.376,0,0,0,17.889,85.1a18.655,18.655,0,0,0,7.845,7.125,28.384,28.384,0,0,0,11.63,2.757v3.456a1.563,1.563,0,0,0,2.565,1.2L53.6,88.2a1.563,1.563,0,0,0-.079-2.458Zm-13.03,9.355V93.45a1.563,1.563,0,0,0-1.562-1.562c-8.527,0-15.213-3.052-18.344-8.373a13.141,13.141,0,0,1-1.5-9.616A15.887,15.887,0,0,0,27.018,81.7c3.928,1.776,8.224,2.016,11.908,2.016a1.563,1.563,0,0,0,1.563-1.563v-2.1l9.575,7.025ZM53.425,29.6a1.562,1.562,0,0,0,.638,1.21l14.65,10.748A1.563,1.563,0,0,0,71.2,40.3v-3.98c8,.2,15.5,2.156,18.137,12.428a1.562,1.562,0,0,0,2.879.37,17.44,17.44,0,0,0-.128-17.474,19.882,19.882,0,0,0-8.361-7.594A30.379,30.379,0,0,0,71.2,21.105V17.293a1.563,1.563,0,0,0-2.565-1.2L53.984,28.356a1.564,1.564,0,0,0-.559,1.248Zm14.649-8.966v2A1.563,1.563,0,0,0,69.637,24.2c9.18,0,16.381,3.291,19.757,9.029a14.2,14.2,0,0,1,1.545,10.7,16.965,16.965,0,0,0-8.585-8.6c-4.19-1.895-8.78-2.15-12.717-2.15a1.563,1.563,0,0,0-1.562,1.563v2.477L57.518,29.473Zm17.512,58.6a4.935,4.935,0,0,1-1.157,3.928,7.4,7.4,0,0,1-4.472,2.256v1.054a1.563,1.563,0,0,1-3.125,0V85.395a6.827,6.827,0,0,1-5.625-4.975,1.563,1.563,0,1,1,3.032-.756c.521,2.092,2.668,2.785,4.349,2.747a4.937,4.937,0,0,0,3.477-1.291,1.819,1.819,0,0,0,.419-1.507c-.123-1.016-.727-2.257-4.326-2.848-5.112-.839-6.3-3.487-6.405-5.561-.139-2.869,1.852-5.27,4.956-5.974l.123-.027V64.1a1.563,1.563,0,1,1,3.125,0v1.09a6.789,6.789,0,0,1,5.083,4.122,1.562,1.562,0,1,1-2.881,1.21A4.013,4.013,0,0,0,77.4,68.277a2.843,2.843,0,0,0-2.526,2.775c.027.553.1,2.022,3.79,2.629,4.23.694,6.559,2.563,6.922,5.555ZM78.395,56.045A19.241,19.241,0,1,0,97.636,75.286,19.263,19.263,0,0,0,78.395,56.045Zm0,35.357A16.116,16.116,0,1,1,94.511,75.286,16.134,16.134,0,0,1,78.395,91.4Zm0-40.83a24.714,24.714,0,1,0,24.714,24.714A24.742,24.742,0,0,0,78.395,50.572Zm0,46.3A21.589,21.589,0,1,1,99.984,75.286,21.613,21.613,0,0,1,78.395,96.875Z" transform="translate(0.004 -1)" fill="#fff"/>
  </g>
</svg>
