<svg xmlns="http://www.w3.org/2000/svg" width="56.195" height="71.93" viewBox="0 0 56.195 71.93">
  <path id="flag" d="M259.7,770.2a2.249,2.249,0,0,1-2.248,2.248H246.213V743.23h11.239a2.249,2.249,0,0,1,2.248,2.248V770.2Zm-17.983-6.744a2.247,2.247,0,0,1-2.248,2.248H221.487V734.239h17.982a2.249,2.249,0,0,1,2.248,2.248v26.974Zm-24.726,24.726a2.248,2.248,0,0,1-4.5,0V729.743a2.248,2.248,0,0,1,4.5,0v58.443ZM259.7,738.735H246.213v-4.5a4.5,4.5,0,0,0-4.5-4.5h-20.23V727.5a4.5,4.5,0,0,0-4.5-4.5h-4.5a4.5,4.5,0,0,0-4.5,4.5v62.939a4.5,4.5,0,0,0,4.5,4.5h4.5a4.5,4.5,0,0,0,4.5-4.5V770.2h20.23v2.248a4.562,4.562,0,0,0,4.5,4.5H259.7a4.5,4.5,0,0,0,4.5-4.5V743.23a4.5,4.5,0,0,0-4.5-4.5Z" transform="translate(-208 -723)" fill="#9f359c" fill-rule="evenodd"/>
</svg>
