<svg xmlns="http://www.w3.org/2000/svg" width="66" height="66" viewBox="0 0 66 66">
  <path id="goals" d="M158.9,27.862a12.867,12.867,0,0,0-5.155,1.034,13.343,13.343,0,0,0-7.052,7.069,13.319,13.319,0,0,0,0,10.293,13.389,13.389,0,0,0,7.052,7.052,13.319,13.319,0,0,0,10.293,0,13.342,13.342,0,0,0,7.069-7.052,12.867,12.867,0,0,0,1.035-5.155,13.5,13.5,0,0,0-.759-4.414H176a18.605,18.605,0,0,1,.414,2.207,17.774,17.774,0,0,1,.138,2.207,17,17,0,0,1-1.4,6.862,17.884,17.884,0,0,1-9.4,9.4,17.557,17.557,0,0,1-13.724,0,18.011,18.011,0,0,1-5.6-3.793,17.769,17.769,0,0,1-3.776-5.6,17.759,17.759,0,0,1,0-13.724,17.769,17.769,0,0,1,3.776-5.6,18.011,18.011,0,0,1,5.6-3.793,17,17,0,0,1,6.862-1.4,17.776,17.776,0,0,1,2.207.138A18.612,18.612,0,0,1,163.31,24v4.621A13.5,13.5,0,0,0,158.9,27.862Zm29.862,5.345a30.648,30.648,0,0,1,1.035,7.9,30.283,30.283,0,0,1-1.1,8.19,31.027,31.027,0,0,1-21.6,21.6,30.943,30.943,0,0,1-16.379,0A31.06,31.06,0,0,1,129.1,49.31a31.006,31.006,0,0,1,0-16.4,31.06,31.06,0,0,1,21.586-21.6,30.225,30.225,0,0,1,8.207-1.1,30.648,30.648,0,0,1,7.9,1.034l-3.483,3.483V15q-1.1-.172-2.207-.276t-2.207-.1a25.914,25.914,0,0,0-7.035.948,26.842,26.842,0,0,0-6.328,2.672,26.5,26.5,0,0,0-9.5,9.5,26.843,26.843,0,0,0-2.672,6.328,26.566,26.566,0,0,0,0,14.069,26.843,26.843,0,0,0,2.672,6.328,26.5,26.5,0,0,0,9.5,9.5,26.842,26.842,0,0,0,6.328,2.672,26.566,26.566,0,0,0,14.069,0,26.842,26.842,0,0,0,6.328-2.672,26.5,26.5,0,0,0,9.5-9.5,26.844,26.844,0,0,0,2.672-6.328,25.914,25.914,0,0,0,.948-7.034q0-1.1-.1-2.207T185,36.69h.276Zm-21.034-4.069v-9.9L180.965,6V19.034H194L180.759,32.276h-9.9l-7.69,7.69a4.41,4.41,0,0,1,.138,1.138,4.277,4.277,0,0,1-.345,1.724,4.495,4.495,0,0,1-2.345,2.345,4.483,4.483,0,0,1-3.448,0,4.495,4.495,0,0,1-2.345-2.345,4.483,4.483,0,0,1,0-3.448,4.495,4.495,0,0,1,2.345-2.345,4.277,4.277,0,0,1,1.724-.345,4.41,4.41,0,0,1,1.138.138Zm4.414-1.276h6.793l4.414-4.414h-6.793V16.655l-4.414,4.414Z" transform="translate(-128 -6)" fill="#9f359c"/>
</svg>
