<svg id="logo-ab" xmlns="http://www.w3.org/2000/svg" xmlns:xlink="http://www.w3.org/1999/xlink" width="586.619" height="490" viewBox="0 0 586.619 490">
  <defs>
    <clipPath id="clip-path">
      <rect id="Rectangle_14321" data-name="Rectangle 14321" width="329" height="490" rx="8" fill="#fff"/>
    </clipPath>
  </defs>
  <path id="Polygon_2" data-name="Polygon 2" d="M315.452,0a65,65,0,0,1,56.309,32.53L451.948,171.59a65,65,0,0,1,0,64.94L371.761,375.589a65,65,0,0,1-56.309,32.53H155.219a65,65,0,0,1-56.309-32.53L18.723,236.529a65,65,0,0,1,0-64.94L98.91,32.53A65,65,0,0,1,155.219,0Z" transform="translate(586.619 7) rotate(90)" fill="#ebf2fa" opacity="0"/>
  <g id="Mask_Group_6" data-name="Mask Group 6" transform="translate(0)" clip-path="url(#clip-path)">
    <g id="Group_56592" data-name="Group 56592" transform="translate(-254.999 -10)">
      <path id="Polygon_3" data-name="Polygon 3" d="M73.5,0,147,127H0Z" transform="translate(220)" fill="#700d75"/>
      <path id="Polygon_4" data-name="Polygon 4" d="M73.5,0,147,127H0Z" transform="translate(73)" fill="#812d87"/>
      <path id="Polygon_5" data-name="Polygon 5" d="M72.5,0,145,127H0Z" transform="translate(293 127) rotate(180)" fill="#320b4d"/>
      <path id="Polygon_6" data-name="Polygon 6" d="M74,0l74,127H0Z" transform="translate(148 127) rotate(180)" fill="#320b4d"/>
      <path id="Polygon_7" data-name="Polygon 7" d="M73.5,0,147,127H0Z" transform="translate(439.999 127) rotate(180)" fill="#812d87"/>
      <path id="Polygon_8" data-name="Polygon 8" d="M73.5,0,147,128H0Z" transform="translate(367 255) rotate(180)" fill="#fff"/>
      <path id="Polygon_9" data-name="Polygon 9" d="M72.5,0,145,128H0Z" transform="translate(293 383) rotate(180)" fill="#0d0d47"/>
      <path id="Polygon_10" data-name="Polygon 10" d="M74,0l74,128H0Z" transform="translate(148 383) rotate(180)" fill="#812d87"/>
      <path id="Polygon_11" data-name="Polygon 11" d="M73.5,0,147,128H0Z" transform="translate(73 255)" fill="#fff"/>
      <path id="Polygon_12" data-name="Polygon 12" d="M73.5,0,147,128H0Z" transform="translate(220 255) rotate(180)" fill="#0d0d47"/>
      <path id="Polygon_13" data-name="Polygon 13" d="M72.5,0,145,128H0Z" transform="translate(148 127)" fill="#812d87"/>
      <path id="Polygon_14" data-name="Polygon 14" d="M74,0l74,128H0Z" transform="translate(0 127)" fill="#320b4d"/>
      <path id="Polygon_15" data-name="Polygon 15" d="M72.5,0,145,126H0Z" transform="translate(148 383)" fill="#320b4d"/>
      <path id="Polygon_16" data-name="Polygon 16" d="M73.5,0,147,126H0Z" transform="translate(220 509) rotate(180)" fill="#812d87"/>
      <path id="Polygon_17" data-name="Polygon 17" d="M73.5,0,147,126H0Z" transform="translate(367 509) rotate(180)" fill="#812d87"/>
      <path id="Polygon_18" data-name="Polygon 18" d="M73.5,0,147,128H0Z" transform="translate(293 127)" fill="#0d0d47"/>
    </g>
  </g>
  <g id="Emdad_logo_Source" transform="translate(216.5 162.001)">
    <g id="Group_56563" data-name="Group 56563">
      <g id="Group_56557" data-name="Group 56557" transform="translate(273.921)">
        <path id="Path_108525" data-name="Path 108525" d="M605.635,111.912c0,.019,0,.042-.007.06h.007v-.06c6.515-52.033,21.947-81.733,21.947-81.733L605.635,16.884Z" transform="translate(-605.628 -9.248)" fill="#fff"/>
        <path id="Path_108526" data-name="Path 108526" d="M636.174,0a5.249,5.249,0,1,0,2.674.735A5.249,5.249,0,0,0,636.174,0Z" transform="translate(-619.48 -0.001)" fill="#fff"/>
        <path id="Path_108527" data-name="Path 108527" d="M688.766,54.838a4.649,4.649,0,1,0,4.005-2.27,4.635,4.635,0,0,0-4.005,2.27" transform="translate(-650.805 -28.792)" fill="#fff"/>
        <path id="Path_108528" data-name="Path 108528" d="M718.884,117.785a3.963,3.963,0,1,0,7.37,2.062v-.069a3.961,3.961,0,0,0-7.37-1.994" transform="translate(-667.353 -63.447)" fill="#fff"/>
        <path id="Path_108530" data-name="Path 108530" d="M607.276,130.6c10.48-32.473,41.266-57.978,41.266-57.978L633.9,53.751C614.49,87.677,607.276,130.6,607.276,130.6" transform="translate(-606.531 -29.44)" fill="#fff"/>
        <path id="Path_108532" data-name="Path 108532" d="M606.21,162.832c17.977-22.548,50.029-33.853,50.029-33.853l-5.887-19.235c-25.511,21.159-44.142,53.088-44.142,53.088" transform="translate(-605.947 -60.108)" fill="#fff"/>
      </g>
      <g id="Group_56556" data-name="Group 56556" transform="translate(0 7.626)">
        <g id="Group_56562" data-name="Group 56562" transform="translate(0.339 106.359)">
          <path id="Path_108533" data-name="Path 108533" d="M.749,253.647h16.86v2.884H3.69v9.22h13.8v2.875H3.69v11.56h13.8v2.882H.749Z" transform="translate(-0.749 -252.909)" fill="#fff"/>
          <path id="Path_108534" data-name="Path 108534" d="M48.193,269.912h2.8v3.759A10.872,10.872,0,0,1,54,270.636a8.462,8.462,0,0,1,4.463-1.281,7.435,7.435,0,0,1,3.006.618,6.475,6.475,0,0,1,2.322,1.648,8.867,8.867,0,0,1,1.56,2.949,10.408,10.408,0,0,1,3.492-3.888,8.241,8.241,0,0,1,4.505-1.327,7.05,7.05,0,0,1,3.986,1.138,6.8,6.8,0,0,1,2.563,3.178,17.013,17.013,0,0,1,.838,6.124v11.876H77.874V279.795a15.508,15.508,0,0,0-.5-4.812,4.316,4.316,0,0,0-1.706-2.107,5.049,5.049,0,0,0-2.88-.8,6.281,6.281,0,0,0-3.717,1.2,6.928,6.928,0,0,0-2.459,3.2,20.26,20.26,0,0,0-.777,6.68v8.518h-2.8V280.535a19.4,19.4,0,0,0-.488-5.353,4.493,4.493,0,0,0-1.71-2.258,4.959,4.959,0,0,0-2.9-.851,6.269,6.269,0,0,0-3.63,1.169,6.934,6.934,0,0,0-2.5,3.152,17.006,17.006,0,0,0-.814,6.06v9.218h-2.8Z" transform="translate(-26.734 -261.513)" fill="#fff"/>
          <path id="Path_108535" data-name="Path 108535" d="M142.571,262.557a8.439,8.439,0,0,0-7.462,4.375,8.8,8.8,0,0,0,.011,8.789,8.572,8.572,0,0,0,3.165,3.266,8.285,8.285,0,0,0,4.267,1.171A8.747,8.747,0,0,0,146.9,279a8.087,8.087,0,0,0,3.165-3.134,8.953,8.953,0,0,0,1.109-4.458,8.652,8.652,0,0,0-2.484-6.309,8.242,8.242,0,0,0-6.124-2.538m11.189-10.541v30.158H151v-3.74a11.91,11.91,0,0,1-3.949,3.221,11.024,11.024,0,0,1-12.679-2.269,11.23,11.23,0,0,1-3.271-8.15,11.028,11.028,0,0,1,3.3-8.04,10.78,10.78,0,0,1,7.942-3.337A10.256,10.256,0,0,1,147.191,261,11.037,11.037,0,0,1,151,264.419v-12.4Z" transform="translate(-72.143 -252.016)" fill="#fff"/>
          <path id="Path_108536" data-name="Path 108536" d="M204.513,272.054a8.427,8.427,0,0,0-7.458,4.375,8.811,8.811,0,0,0,.008,8.79,8.612,8.612,0,0,0,3.166,3.266,8.281,8.281,0,0,0,4.265,1.171,8.76,8.76,0,0,0,4.356-1.163,8.134,8.134,0,0,0,3.167-3.134,9.008,9.008,0,0,0,1.1-4.458,8.628,8.628,0,0,0-2.486-6.309,8.225,8.225,0,0,0-6.122-2.538m11.187-2.142v21.759h-2.757V287.93A11.983,11.983,0,0,1,209,291.151a10.722,10.722,0,0,1-4.791,1.082,10.607,10.607,0,0,1-7.888-3.351,11.226,11.226,0,0,1-3.275-8.15,11.024,11.024,0,0,1,3.3-8.04,10.759,10.759,0,0,1,7.939-3.337,10.263,10.263,0,0,1,4.853,1.138,11.078,11.078,0,0,1,3.806,3.423v-4Z" transform="translate(-106.069 -261.513)" fill="#fff"/>
          <path id="Path_108537" data-name="Path 108537" d="M266.467,262.557A8.433,8.433,0,0,0,259,266.932a8.813,8.813,0,0,0,.008,8.789,8.615,8.615,0,0,0,3.17,3.266,8.269,8.269,0,0,0,4.265,1.171A8.775,8.775,0,0,0,270.8,279a8.128,8.128,0,0,0,3.163-3.134,9,9,0,0,0,1.109-4.458,8.636,8.636,0,0,0-2.486-6.309,8.235,8.235,0,0,0-6.124-2.538m11.187-10.541v30.158H274.9v-3.74a11.977,11.977,0,0,1-3.951,3.221,11.024,11.024,0,0,1-12.679-2.269,11.243,11.243,0,0,1-3.269-8.15,11.029,11.029,0,0,1,3.3-8.04,10.762,10.762,0,0,1,7.936-3.337A10.255,10.255,0,0,1,271.087,261a11.114,11.114,0,0,1,3.81,3.423v-12.4Z" transform="translate(-140.003 -252.016)" fill="#fff"/>
        </g>
        <g id="Group_56561" data-name="Group 56561" transform="translate(0 148.867)">
          <path id="Path_108564" data-name="Path 108564" d="M182.908,14.494h-8.679c-.684,0-1.271-.02-1.763-.066a7.648,7.648,0,0,1-1.254-.193,2.828,2.828,0,0,1-.841-.356,1.515,1.515,0,0,1-.493-.511,1.865,1.865,0,0,1-.241-.673,5.375,5.375,0,0,1-.061-.857,5.487,5.487,0,0,1,.027-.624,5.126,5.126,0,0,1,.078-.539l-1.109-.107c-.048.293-.086.595-.116.9s-.047.574-.047.792a5.028,5.028,0,0,0,.077.906,2.791,2.791,0,0,0,.279.826,2.445,2.445,0,0,0,.547.7,3.179,3.179,0,0,0,.893.543,5.875,5.875,0,0,0,1.31.356,11.572,11.572,0,0,0,1.8.121h10.818V8.325h-1.22Z" transform="translate(-92.238 -4.56)" fill="#fff"/>
          <path id="Path_108565" data-name="Path 108565" d="M188.9,2a.74.74,0,0,0,.557-.228.765.765,0,0,0,.22-.555.773.773,0,0,0-.22-.547A.743.743,0,0,0,188.9.444a.768.768,0,0,0-.55.227.746.746,0,0,0-.233.547.738.738,0,0,0,.233.555A.764.764,0,0,0,188.9,2" transform="translate(-103.035 -0.243)" fill="#fff"/>
          <path id="Path_108566" data-name="Path 108566" d="M183.432,2a.738.738,0,0,0,.55-.228.751.751,0,0,0,.226-.555.76.76,0,0,0-.226-.547.741.741,0,0,0-.55-.227.769.769,0,0,0-.55.227.748.748,0,0,0-.235.547.739.739,0,0,0,.235.555.766.766,0,0,0,.55.228" transform="translate(-100.037 -0.243)" fill="#fff"/>
          <rect id="Rectangle_14315" data-name="Rectangle 14315" width="1.222" height="11.155" transform="translate(95.332 0.007)" fill="#fff"/>
          <path id="Path_108567" data-name="Path 108567" d="M255.185,28.713a.736.736,0,0,0-.552.228.794.794,0,0,0,0,1.1.741.741,0,0,0,.552.232.774.774,0,0,0,.555-.232.777.777,0,0,0,0-1.1.768.768,0,0,0-.555-.228" transform="translate(-139.343 -15.726)" fill="#fff"/>
          <path id="Path_108568" data-name="Path 108568" d="M271.075,2a.771.771,0,0,0,.776-.782.768.768,0,0,0-.224-.547.757.757,0,0,0-.552-.227.748.748,0,0,0-.547.227.726.726,0,0,0-.235.547.719.719,0,0,0,.235.555.744.744,0,0,0,.547.228" transform="translate(-148.041 -0.243)" fill="#fff"/>
          <path id="Path_108569" data-name="Path 108569" d="M251.281,9.934H247.69a1.053,1.053,0,0,1-.78-.305,2.373,2.373,0,0,1-.509-.82,6.95,6.95,0,0,1-.328-1.174c-.08-.44-.155-.9-.218-1.368a4.988,4.988,0,0,0-.358-1.275,3.1,3.1,0,0,0-.663-.969,2.866,2.866,0,0,0-.972-.616,3.5,3.5,0,0,0-1.264-.213,6.652,6.652,0,0,0-1.236.107c-.373.075-.747.168-1.107.274V4.6c.142-.035.291-.073.455-.109s.321-.065.482-.1.317-.046.467-.065.294-.023.413-.023a2.871,2.871,0,0,1,1.445.323,2.527,2.527,0,0,1,.872.844,3.952,3.952,0,0,1,.474,1.166c.1.43.186.863.256,1.291a3.817,3.817,0,0,0,.119.549,3.474,3.474,0,0,0,.187.549,3.009,3.009,0,0,0,.273.5,1.766,1.766,0,0,0,.365.4h-7.656a5.149,5.149,0,0,1-2.55-.56c.01-.088.021-.18.033-.275s.015-.181.015-.283V3.775h-1.22V8.429a3.369,3.369,0,0,1-.071.75.98.98,0,0,1-.213.456.726.726,0,0,1-.375.232,2.107,2.107,0,0,1-.581.067h-11.2V3.766h-1.222V9.935a9.212,9.212,0,0,1-.138,1.7,3.16,3.16,0,0,1-.518,1.266,2.81,2.81,0,0,1-1.038.88,6.068,6.068,0,0,1-1.729.526l.156,1.155a8.843,8.843,0,0,0,1.861-.488,4.132,4.132,0,0,0,1.341-.83,3.634,3.634,0,0,0,.854-1.254,5.809,5.809,0,0,0,.4-1.738h11.561a2.194,2.194,0,0,0,1.044-.214,1.714,1.714,0,0,0,.662-.572,4.021,4.021,0,0,0,.558.333,3.85,3.85,0,0,0,.631.248,5.518,5.518,0,0,0,.773.157c.1.011.216.018.328.026a.949.949,0,0,0,.211.022h14.531V0h-1.228Z" transform="translate(-119.181)" fill="#fff"/>
          <rect id="Rectangle_14316" data-name="Rectangle 14316" width="1.22" height="11.155" transform="translate(136.77 0.007)" fill="#fff"/>
          <path id="Path_108570" data-name="Path 108570" d="M5.422,1.117H5l-5,10.6H1.434l1.61-3.408h4.3l1.593,3.336.034.073h1.394L5.454,1.193ZM6.774,7.062H3.637l1.57-3.329Z" transform="translate(0 -0.612)" fill="#fff"/>
          <rect id="Rectangle_14317" data-name="Rectangle 14317" width="1.232" height="10.857" transform="translate(11.335 0.247)" fill="#fff"/>
          <path id="Path_108571" data-name="Path 108571" d="M47.951,1.116h-1.76l-3.958,3.72V1.116h-1.3v10.6h1.3V7.086l4.318,4.586.038.042h1.721l-5.47-5.823Z" transform="translate(-22.417 -0.611)" fill="#fff"/>
          <path id="Path_108572" data-name="Path 108572" d="M64.947,3.76a2.828,2.828,0,0,0-1.589-.46,3.327,3.327,0,0,0-1.616.406,4.1,4.1,0,0,0-1.128.937V.545H59.376V11.4h1.237V8.468a9.868,9.868,0,0,1,.137-2.052,2.648,2.648,0,0,1,.887-1.394,2.316,2.316,0,0,1,1.522-.563,1.878,1.878,0,0,1,1.182.351,1.929,1.929,0,0,1,.622,1.077,9.458,9.458,0,0,1,.1,1.738V11.4H66.3V7.338a6.272,6.272,0,0,0-.327-2.355A2.757,2.757,0,0,0,64.947,3.76" transform="translate(-32.521 -0.299)" fill="#fff"/>
          <path id="Path_108573" data-name="Path 108573" d="M82.024,6.638a3.783,3.783,0,0,0-3.134,1.5,4.3,4.3,0,0,0,.17,5.524,3.782,3.782,0,0,0,3.021,1.272,4.349,4.349,0,0,0,1.555-.261,3.956,3.956,0,0,0,1.247-.779,4.7,4.7,0,0,0,.972-1.323l.054-.119L84.862,11.9l-.059.105a4.633,4.633,0,0,1-.813,1.057,2.957,2.957,0,0,1-.9.512,3.162,3.162,0,0,1-1.1.2,2.615,2.615,0,0,1-1.943-.816,2.992,2.992,0,0,1-.809-1.972h6.877v-.124a4.292,4.292,0,0,0-.872-2.7,3.909,3.909,0,0,0-3.222-1.531M79.376,9.89a3.073,3.073,0,0,1,.809-1.366,2.694,2.694,0,0,1,1.854-.694,2.963,2.963,0,0,1,1.247.278,2.572,2.572,0,0,1,.954.725,3.019,3.019,0,0,1,.509,1.058Z" transform="translate(-42.704 -3.636)" fill="#fff"/>
          <path id="Path_108574" data-name="Path 108574" d="M103.8,3.3a3.842,3.842,0,0,0-1.732.39,4.116,4.116,0,0,0-1.2.915V.545H99.625V11.4h1.239V10.233a3.929,3.929,0,0,0,1.155.947,3.721,3.721,0,0,0,1.752.417,3.931,3.931,0,0,0,2.88-1.21,4.036,4.036,0,0,0,1.193-2.924,4.086,4.086,0,0,0-1.182-2.945A3.876,3.876,0,0,0,103.8,3.3m2.8,4.134a3.032,3.032,0,0,1-.394,1.486,2.858,2.858,0,0,1-1.064,1.089,2.806,2.806,0,0,1-1.449.388,2.772,2.772,0,0,1-2.059-.858,2.93,2.93,0,0,1-.838-2.134,3.053,3.053,0,0,1,.371-1.507,2.776,2.776,0,0,1,1.069-1.056,2.969,2.969,0,0,1,1.473-.4,2.809,2.809,0,0,1,1.425.39A2.911,2.911,0,0,1,106.2,5.944a3.038,3.038,0,0,1,.4,1.492" transform="translate(-54.565 -0.299)" fill="#fff"/>
          <path id="Path_108575" data-name="Path 108575" d="M122.395,6.985a3.357,3.357,0,0,0-.755.708V6.836h-1.255v7.9h1.255V12.022a11.573,11.573,0,0,1,.183-2.608,2.434,2.434,0,0,1,.656-1.2,1.288,1.288,0,0,1,.864-.369,1.181,1.181,0,0,1,.471.12l.1.047.641-1.037-.114-.063a1.831,1.831,0,0,0-2.044.071" transform="translate(-65.936 -3.635)" fill="#fff"/>
          <path id="Path_108576" data-name="Path 108576" d="M137.023,8a3.928,3.928,0,0,0-1.155-.95,3.741,3.741,0,0,0-1.765-.415,3.938,3.938,0,0,0-2.884,1.216,4.006,4.006,0,0,0-1.193,2.911,4.114,4.114,0,0,0,1.181,2.956,4.007,4.007,0,0,0,4.605.818,4.224,4.224,0,0,0,1.21-.91v1.109h1.222v-7.9h-1.222Zm-.778.689a2.933,2.933,0,0,1,.842,2.134,3.034,3.034,0,0,1-.375,1.5,2.72,2.72,0,0,1-1.067,1.052,2.869,2.869,0,0,1-3.97-1.1,3,3,0,0,1-.4-1.482,3.062,3.062,0,0,1,.394-1.486,2.917,2.917,0,0,1,1.059-1.086,2.879,2.879,0,0,1,1.458-.387,2.782,2.782,0,0,1,2.061.853" transform="translate(-71.216 -3.636)" fill="#fff"/>
          <path id="Path_108577" data-name="Path 108577" d="M154.04,3.636V.794h-1.232V3.636h-1.346v1.1h1.346v6.8h1.232v-6.8H155.6v-1.1Z" transform="translate(-82.957 -0.435)" fill="#fff"/>
        </g>
        <g id="Group_56558" data-name="Group 56558">
          <path id="Path_108560" data-name="Path 108560" d="M41.788,103.882c-.882-10.842-6.011-14.22-15.244-14.22-8.361,0-15.253,2.5-16.276,11.438h-8.5C3.813,87.461,13.93,82.329,26.544,82.329,41.2,82.329,50,89.08,50,104.181v43.693H0V140.4H41.788Z" transform="translate(0 -52.719)" fill="#fff"/>
          <rect id="Rectangle_14313" data-name="Rectangle 14313" width="7.91" height="95.156" transform="translate(65.204 0)" fill="#fff"/>
          <path id="Path_108561" data-name="Path 108561" d="M237.761,103.882c-.876-10.842-6.009-14.22-15.249-14.22-8.353,0-15.834,2.5-17.007,11.438h-7.768c2.052-13.639,12.168-18.771,24.775-18.771,14.665,0,23.457,6.751,23.457,21.852V140.4h20.822v7.475H195.973V140.4h41.788Z" transform="translate(-107.336 -52.719)" fill="#fff"/>
          <path id="Path_108562" data-name="Path 108562" d="M410.929,82.392c-15.99,0-22.589,15.542-22.589,27.86,0,12.164,6.6,27.852,22.589,27.852s22.283-14.511,22.283-27.852c0-12.318-6.308-27.86-22.283-27.86m-59.97,61.579V136.5h11.725c10.846,0,17.452-6.75,17.452-18.188v-8.056c0-16.137,9.677-35.05,30.794-35.05s30.782,18.913,30.782,35.05c0,16.411-9.676,35.039-30.782,35.039-12.176,0-20.532-6.009-25.374-14.223-2.784,6.6-8.8,12.9-20.968,12.9Z" transform="translate(-192.223 -48.815)" fill="#fff"/>
          <rect id="Rectangle_14314" data-name="Rectangle 14314" width="7.922" height="95.156" transform="translate(261.891)" fill="#fff"/>
          <path id="Path_108563" data-name="Path 108563" d="M11.262,7.086,10.24,6.26,9.772,7.48a1.028,1.028,0,0,1-.592.188H6.09V5.75c0-2.566,1.267-2.566,1.683-2.566.262,0,.959,0,1.031,1.168l.057.919h3.46l-.08-1.053A4.406,4.406,0,0,0,7.822,0c-3.192,0-5.1,2.16-5.1,5.778v1.89H1.287L0,10.957H9.05a3.91,3.91,0,0,0,3.436-1.814l.48-.758Z" transform="translate(258.439 96.985)" fill="#fff"/>
        </g>
      </g>
    </g>
  </g>
</svg>
