<svg xmlns="http://www.w3.org/2000/svg" width="85" height="85" viewBox="0 0 85 85">
  <g id="mrona" transform="translate(-1653 -2947)">
    <rect id="Rectangle_14334" data-name="Rectangle 14334" width="85" height="85" rx="42.5" transform="translate(1653 2947)" fill="#2a6ebb" opacity="0.15"/>
    <g id="icon" transform="translate(1670.07 2964.059)">
      <path id="Path_108624" data-name="Path 108624" d="M48.576,24l-10.4-8.591a.781.781,0,0,0-1.278.6v4.751a16.448,16.448,0,0,0-7.56,2.5V13.969h4.686a.781.781,0,0,0,.6-1.278l-8.591-10.4a.808.808,0,0,0-1.2,0l-8.591,10.4a.781.781,0,0,0,.6,1.278h4.686v17.47a17.457,17.457,0,0,0-7.56-2.9v-4.84a.781.781,0,0,0-1.278-.6l-10.4,8.59a.781.781,0,0,0,0,1.2l10.4,8.591a.781.781,0,0,0,1.278-.6v-4.4a9.916,9.916,0,0,1,7.56,9.581v2.026a.781.781,0,0,0,.781.781h6.248a.781.781,0,0,0,.781-.781V37.32a8.8,8.8,0,0,1,7.56-8.713V33.19a.781.781,0,0,0,1.278.6l10.4-8.591a.781.781,0,0,0,0-1.2Zm-20.8,23.3H23.087V46.056a11.48,11.48,0,0,0-9.791-11.3.781.781,0,0,0-.893.773v3.687l-8.4-6.933,8.4-6.933v3.882a.781.781,0,0,0,.711.778A16.223,16.223,0,0,1,27.773,46.057V47.3ZM38.457,31.532V27.748a.777.777,0,0,0-.243-.565.793.793,0,0,0-.577-.215A10.36,10.36,0,0,0,27.772,37.32v1.575a17.963,17.963,0,0,0-4.686-6.249V13.188a.781.781,0,0,0-.781-.781H18.5l6.933-8.4,6.933,8.4H28.553a.781.781,0,0,0-.781.781V24.755a.781.781,0,0,0,1.255.62,14.949,14.949,0,0,1,8.671-3.1.781.781,0,0,0,.758-.781V17.665l8.4,6.933-8.4,6.933Z" fill="#498edb"/>
      <path id="Path_108624_-_Outline" data-name="Path 108624 - Outline" d="M25.43,1.518a1.271,1.271,0,0,1,.988.451l8.591,10.4a1.281,1.281,0,0,1-.988,2.1H29.835v7.912a16.776,16.776,0,0,1,6.56-2.08V16.009a1.287,1.287,0,0,1,.735-1.159,1.27,1.27,0,0,1,.546-.122,1.285,1.285,0,0,1,.816.294l10.4,8.591a1.281,1.281,0,0,1,0,1.975l-10.4,8.591a1.281,1.281,0,0,1-2.1-.988V29.2a8.344,8.344,0,0,0-6.56,8.117V48.082a1.282,1.282,0,0,1-1.281,1.281H22.306a1.282,1.282,0,0,1-1.281-1.281V46.056a9.463,9.463,0,0,0-6.56-8.923v3.742a1.282,1.282,0,0,1-2.1.988l-10.4-8.591a1.281,1.281,0,0,1,0-1.975l10.4-8.59a1.288,1.288,0,0,1,.817-.293,1.273,1.273,0,0,1,.544.121,1.287,1.287,0,0,1,.736,1.16V28.1a18.072,18.072,0,0,1,6.56,2.42V14.469H16.839a1.281,1.281,0,0,1-.987-2.1l8.59-10.4A1.271,1.271,0,0,1,25.43,1.518Zm8.591,11.951a.281.281,0,0,0,.217-.459l-8.591-10.4a.311.311,0,0,0-.433,0l-8.591,10.4a.281.281,0,0,0,.217.46h4.686a.5.5,0,0,1,.5.5v17.47a.5.5,0,0,1-.782.413A17.069,17.069,0,0,0,13.9,29.03a.5.5,0,0,1-.435-.5v-4.84a.283.283,0,0,0-.161-.255.29.29,0,0,0-.3.038L2.6,32.068a.281.281,0,0,0,0,.433L13,41.092a.289.289,0,0,0,.3.037.282.282,0,0,0,.159-.253v-4.4a.5.5,0,0,1,.617-.486,10.416,10.416,0,0,1,7.943,10.067v2.026a.281.281,0,0,0,.281.281h6.248a.281.281,0,0,0,.281-.281V37.32a9.3,9.3,0,0,1,7.99-9.209.5.5,0,0,1,.57.5V33.19a.281.281,0,0,0,.459.217l10.4-8.592a.281.281,0,0,0,0-.433l-10.4-8.591a.281.281,0,0,0-.46.217v4.751a.5.5,0,0,1-.462.5A15.845,15.845,0,0,0,29.6,23.685a.5.5,0,0,1-.767-.423V13.969a.5.5,0,0,1,.5-.5ZM25.429,3.511a.5.5,0,0,1,.386.182l6.933,8.4a.5.5,0,0,1-.386.818H28.553a.281.281,0,0,0-.281.281V24.755a.281.281,0,0,0,.451.223,15.445,15.445,0,0,1,8.96-3.2.28.28,0,0,0,.272-.281V17.665a.5.5,0,0,1,.818-.386l8.4,6.933a.5.5,0,0,1,0,.771L38.793,31.9a.5.5,0,0,1-.837-.385V27.748a.279.279,0,0,0-.086-.2.293.293,0,0,0-.211-.079h-.006a9.861,9.861,0,0,0-9.381,9.852v1.575a.5.5,0,0,1-.956.206,17.56,17.56,0,0,0-4.555-6.075.5.5,0,0,1-.175-.38V13.188a.281.281,0,0,0-.281-.281H18.5a.5.5,0,0,1-.386-.818l6.933-8.4A.5.5,0,0,1,25.429,3.511Zm5.872,8.4L25.429,4.8l-5.872,7.11H22.3a1.282,1.282,0,0,1,1.281,1.281v19.23a18.616,18.616,0,0,1,3.695,4.454,10.861,10.861,0,0,1,10.331-10.4h.048a1.281,1.281,0,0,1,1.3,1.281v2.721l7.11-5.871-7.11-5.872V21.5a1.275,1.275,0,0,1-1.243,1.281,14.451,14.451,0,0,0-8.383,2.993,1.281,1.281,0,0,1-2.059-1.017V13.188a1.282,1.282,0,0,1,1.281-1.281ZM12.4,24.852a.5.5,0,0,1,.5.5v3.882a.279.279,0,0,0,.255.28A16.726,16.726,0,0,1,28.273,46.057V47.3a.5.5,0,0,1-.5.5H23.087a.5.5,0,0,1-.5-.5V46.056a10.977,10.977,0,0,0-9.363-10.8l-.041,0a.273.273,0,0,0-.182.068.282.282,0,0,0-.1.214v3.687a.5.5,0,0,1-.818.386l-8.4-6.933a.5.5,0,0,1,0-.771l8.4-6.933A.5.5,0,0,1,12.4,24.852ZM27.273,46.8v-.744a15.719,15.719,0,0,0-14.2-15.547A1.274,1.274,0,0,1,11.9,29.234v-2.82l-7.11,5.872,7.11,5.872V35.531a1.281,1.281,0,0,1,1.28-1.281h0a1.313,1.313,0,0,1,.182.013A11.983,11.983,0,0,1,23.587,46.056V46.8Z" fill="#498edb"/>
    </g>
  </g>
</svg>
