<svg xmlns="http://www.w3.org/2000/svg" width="85" height="85" viewBox="0 0 85 85">
  <g id="tamayoz" transform="translate(-1653 -2947)">
    <rect id="Rectangle_14334" data-name="Rectangle 14334" width="85" height="85" rx="42.5" transform="translate(1653 2947)" fill="#2a6ebb" opacity="0.15"/>
    <g id="medal-star" transform="translate(1672 2966)">
      <path id="Vector" d="M14,29.25a13.629,13.629,0,0,1-2.3-.2A15.24,15.24,0,0,1,14-1.25c.261,0,.525.007.786.02A15.234,15.234,0,0,1,16.3,29.055,13.629,13.629,0,0,1,14,29.25Zm0-28a12.74,12.74,0,0,0-1.911,25.335l.024,0a11.141,11.141,0,0,0,3.775,0l.032-.005A12.715,12.715,0,0,0,26.75,14.005s0,0,0-.006A12.731,12.731,0,0,0,14.659,1.267C14.44,1.255,14.218,1.25,14,1.25Z" transform="translate(10 4)" fill="#498edb"/>
      <path id="Vector-2" data-name="Vector" d="M8.966,19.147a3.25,3.25,0,0,1-3.162-2.5l-.7-2.94a.739.739,0,0,0-.552-.553l-3.3-.78A3.256,3.256,0,0,1-.308,6.922L-.3,6.916l7.8-7.8A1.25,1.25,0,0,1,8.5-1.244,1.25,1.25,0,0,1,9.419-.7a12.746,12.746,0,0,0,8.7,5.5l.032.005a10.848,10.848,0,0,0,1.671.16,1.251,1.251,0,0,1,.427,0,10.848,10.848,0,0,0,1.671-.16l.032-.005a12.746,12.746,0,0,0,8.7-5.5,1.25,1.25,0,0,1,.917-.548,1.25,1.25,0,0,1,1.005.36l7.8,7.8,0,0a3.241,3.241,0,0,1-1.561,5.437l-3.3.78-.011,0a.717.717,0,0,0-.538.538l0,.013-.7,2.94a3.25,3.25,0,0,1-5.646,1.343L20.042,8.1,11.45,17.992A3.242,3.242,0,0,1,8.966,19.147ZM1.469,8.68a.756.756,0,0,0,.363,1.264l3.3.779a3.225,3.225,0,0,1,2.409,2.409l.7,2.938a.75.75,0,0,0,1.305.308l.015-.018,7.93-9.126A15.257,15.257,0,0,1,8.244,1.905ZM22.6,7.233l7.926,9.106.016.019a.75.75,0,0,0,1.305-.308l.7-2.934A3.229,3.229,0,0,1,34.958,10.7l3.3-.779a.741.741,0,0,0,.36-1.243L31.837,1.905A15.259,15.259,0,0,1,22.6,7.233Z" transform="translate(3.959 25.8)" fill="#498edb"/>
      <path id="Vector-3" data-name="Vector" d="M6.637-1.25A2.622,2.622,0,0,1,8.907.4l1.158,2.315a.2.2,0,0,0,.109.077l2.1.353a2.6,2.6,0,0,1,2.212,1.661,2.616,2.616,0,0,1-.832,2.656L12.026,9.091a.168.168,0,0,0-.032.12l.472,2.026a2.867,2.867,0,0,1-.372,2.552,2.038,2.038,0,0,1-1.636.765A3.491,3.491,0,0,1,8.692,14L6.728,12.837a.151.151,0,0,0-.118,0L4.644,14l-.005,0a3.53,3.53,0,0,1-1.758.545,2.042,2.042,0,0,1-1.64-.765,2.858,2.858,0,0,1-.37-2.545l.467-2A.249.249,0,0,0,1.3,9.075L-.315,7.464a2.615,2.615,0,0,1-.837-2.633,2.624,2.624,0,0,1,2.2-1.682l.01,0L3.148,2.8a.208.208,0,0,0,.1-.079L4.4.421A2.524,2.524,0,0,1,6.637-1.25Zm5.312,6.879-.08-.015h-.008l-2.14-.36-.05-.01a2.7,2.7,0,0,1-1.788-1.3q-.017-.03-.032-.06l-1.18-2.36-.012-.024-.012.024-1.18,2.36q-.015.03-.031.059a2.714,2.714,0,0,1-1.746,1.3l-.073.015-2.135.359-.091.019c.018.02.039.042.062.066l1.66,1.66q.034.034.066.071A2.744,2.744,0,0,1,3.8,9.664q-.007.04-.016.08l-.48,2.06q-.011.046-.019.088l.089-.049,2-1.179.046-.026a2.65,2.65,0,0,1,2.5,0l.046.026,2,1.18.006,0,.081.047q-.008-.042-.019-.088l-.48-2.062q-.005-.023-.01-.046a2.68,2.68,0,0,1,.64-2.3l.043-.046,1.66-1.66C11.909,5.672,11.93,5.65,11.949,5.629Z" transform="translate(17.371 11)" fill="#498edb"/>
      <path id="Vector-4" data-name="Vector" d="M0,0H48V48H0Z" fill="none" opacity="0"/>
    </g>
  </g>
</svg>
