<svg xmlns="http://www.w3.org/2000/svg" width="85" height="85" viewBox="0 0 85 85">
  <g id="tamken" transform="translate(-1653 -2947)">
    <rect id="Rectangle_14334" data-name="Rectangle 14334" width="85" height="85" rx="42.5" transform="translate(1653 2947)" fill="#80057c" opacity="0.15"/>
    <g id="icon" transform="translate(1668.35 2960.454)">
      <path id="Path_108622" data-name="Path 108622" d="M54.08,111.847,44.991,100.04a1.065,1.065,0,0,0-1.415-.249l-5.868,3.732H30.055a1.055,1.055,0,0,0-.293.049l-5.934,1.708L17.671,103.6l-5.983-3.8a1.064,1.064,0,0,0-1.4.23L.235,112.473a1.065,1.065,0,0,0,.134,1.476l5.269,4.534,4.727,6.37a3.76,3.76,0,0,0,2.365,6.316,3.787,3.787,0,0,0-.044.575,3.763,3.763,0,0,0,3.763,3.763h.04c0,.026,0,.051,0,.077a3.763,3.763,0,0,0,3.763,3.763,3.839,3.839,0,0,0,.587-.046,3.763,3.763,0,0,0,6.4,2.291l.575-.575.242.195a3.761,3.761,0,0,0,6.377-2.763,3.757,3.757,0,0,0,3.82-3.818,3.76,3.76,0,0,0,3.819-3.821A3.761,3.761,0,0,0,45.291,125l3.451-7.229,5.189-4.465a1.065,1.065,0,0,0,.149-1.457ZM11.348,102.1l4.3,2.736-9.358,11.4-3.75-3.228Zm.607,24.173,1.3-1.3c.039-.039.081-.077.123-.111a1.63,1.63,0,0,1,.887-.36h.028c.046,0,.093-.006.14-.006a1.624,1.624,0,0,1,1.165.512,1.674,1.674,0,0,1-.072,2.316l-1.259,1.259a1.633,1.633,0,1,1-2.31-2.31Zm3.34,6.627a1.633,1.633,0,0,1,0-2.31l2.518-2.518a1.651,1.651,0,0,1,1.857-.321,1.628,1.628,0,0,1,.9,1.687,1.724,1.724,0,0,1-.486.984L17.605,132.9a1.633,1.633,0,0,1-2.31,0Zm3.8,3.838a1.633,1.633,0,0,1,0-2.31l2.517-2.518a1.652,1.652,0,0,1,1.975-.259,1.625,1.625,0,0,1,.78,1.651,1.726,1.726,0,0,1-.484.958l-2.477,2.477a1.633,1.633,0,0,1-2.31,0Zm4.33,3.347a1.635,1.635,0,0,1,0-2.31l1.3-1.3c.039-.039.08-.076.123-.111l0,0a1.628,1.628,0,0,1,.724-.336l.019,0c.046-.008.092-.015.138-.019l.056,0c.038,0,.076,0,.114,0a1.623,1.623,0,0,1,1.165.512,1.473,1.473,0,0,1,.105.124,1.686,1.686,0,0,1-.184,2.2l-1.252,1.252a1.635,1.635,0,0,1-2.31,0ZM43.29,128.2a1.635,1.635,0,0,1-2.31,0,.969.969,0,0,0-.073-.065l-6.847-6.919a1.065,1.065,0,0,0-1.514,1.5l6.921,6.993,0,0a1.633,1.633,0,1,1-2.31,2.31l-4.63-4.678a1.065,1.065,0,0,0-1.513,1.5l4.559,4.606a1.014,1.014,0,0,0,.075.083,1.633,1.633,0,1,1-2.311,2.31l-2.527-2.553a1.065,1.065,0,1,0-1.514,1.5l2.456,2.482a.949.949,0,0,0,.075.084,1.633,1.633,0,1,1-2.31,2.31,2.359,2.359,0,0,0-.242-.193c-.07-.053-.088-.09-.053-.174s.088-.163.123-.249.07-.2.1-.295a3.839,3.839,0,0,0,.138-1.638,3.724,3.724,0,0,0-3.174-3.205,3.8,3.8,0,0,0-.912-3.427,3.735,3.735,0,0,0-2.682-1.177h-.112a3.726,3.726,0,0,0-3.689-3.838,3.828,3.828,0,0,0-.909.1,3.726,3.726,0,0,0-3.651-3.2,3.772,3.772,0,0,0-2.571.967l-4.116-5.546,9.847-12,3.138.858-4.1,7.232a3.763,3.763,0,0,0,1.419,5.129c.055.031.11.06.166.089l.013.006a3.788,3.788,0,0,0,.452.189,3.763,3.763,0,0,0,4.5-1.7l2.663-4.7,4.756.337L43.29,125.892a1.636,1.636,0,0,1,0,2.31Zm.441-4.881-11.88-11.879a.944.944,0,0,0-.07-.065,1.066,1.066,0,0,0-.607-.244l-5.823-.413a1.082,1.082,0,0,0-1,.537l-2.995,5.285a1.633,1.633,0,1,1-2.842-1.611l4-7.055,1.62-.466.032-.011,6.046-1.746h7.3l9.119,11.593Zm4.3-7.746-8.433-10.726,4.3-2.737,7.88,10.236Zm0,0" transform="translate(0 -88.612)" fill="#80057c"/>
      <path id="Path_108622_-_Outline" data-name="Path 108622 - Outline" d="M24.582,142.941a4.006,4.006,0,0,1-3.958-3.363c-.125.012-.249.017-.372.017a4.013,4.013,0,0,1-4.01-3.844,4.013,4.013,0,0,1-3.805-4.008c0-.12.005-.24.016-.36a4.013,4.013,0,0,1-2.409-6.545l-4.589-6.184L.207,114.138a1.309,1.309,0,0,1-.166-1.822L10.094,99.864a1.314,1.314,0,0,1,1.729-.283l5.951,3.785,6.053,1.656,5.866-1.689a1.28,1.28,0,0,1,.362-.059h7.58l5.807-3.693a1.315,1.315,0,0,1,1.747.307l9.089,11.807a1.315,1.315,0,0,1-.184,1.8l-5.149,4.431-3.37,7.057a4.033,4.033,0,0,1-.6,4.9,3.984,3.984,0,0,1-2.65,1.169,4.01,4.01,0,0,1-3.82,3.822,4.006,4.006,0,0,1-3.82,3.818,4.013,4.013,0,0,1-6.789,2.7l-.058-.047-.417.417A3.986,3.986,0,0,1,24.582,142.941Zm-3.52-3.929.026.263a3.513,3.513,0,0,0,5.978,2.139l.734-.734.433.351a3.511,3.511,0,0,0,5.953-2.58l0-.258.258,0a3.507,3.507,0,0,0,3.566-3.564l0-.258.258,0a3.51,3.51,0,0,0,3.565-3.568l0-.258.258,0a3.494,3.494,0,0,0,2.539-1.027,3.529,3.529,0,0,0,.462-4.4L45,125.016l3.535-7.4,5.229-4.5A.815.815,0,0,0,53.882,112l-9.089-11.807A.815.815,0,0,0,43.71,100l-5.929,3.771H30.055a.808.808,0,0,0-.223.039l-6,1.728-6.261-1.713L11.554,100a.814.814,0,0,0-1.071.175L.43,112.63a.811.811,0,0,0,.1,1.129l5.29,4.553,4.868,6.56-.143.152a3.51,3.51,0,0,0,2.208,5.9l.262.026-.04.26a3.552,3.552,0,0,0-.041.537,3.513,3.513,0,0,0,3.513,3.513h.017l.277-.009-.005.3c0,.013,0,.026,0,.039a3.513,3.513,0,0,0,3.513,3.513,3.6,3.6,0,0,0,.549-.043Zm3.52,1.8A1.883,1.883,0,0,1,23.25,137.6l1.3-1.3c.041-.041.086-.082.133-.121l.011-.009,0,0h0a1.886,1.886,0,0,1,.829-.383l.026,0c.053-.01.105-.017.155-.021l.045,0,.035,0c.035,0,.07,0,.106,0h.01a1.871,1.871,0,0,1,1.344.59,1.732,1.732,0,0,1,.123.145,1.931,1.931,0,0,1-.206,2.527l-1.252,1.252A1.87,1.87,0,0,1,24.582,140.813ZM25,136.565c-.035.029-.067.059-.1.088l-1.3,1.3a1.383,1.383,0,0,0,1.956,1.957l1.252-1.252a1.43,1.43,0,0,0,.162-1.87,1.236,1.236,0,0,0-.088-.1,1.375,1.375,0,0,0-.987-.434h0c-.026,0-.052,0-.078,0H25.8l-.048,0c-.036,0-.075.009-.116.016l-.023,0a1.385,1.385,0,0,0-.6.276Zm5.678,3.823a1.871,1.871,0,0,1-1.332-.551,1.3,1.3,0,0,0-.146-.118l-.071-.053A.364.364,0,0,1,29,139.2a1.559,1.559,0,0,1,.072-.147c.019-.036.038-.071.051-.1.036-.088.066-.183.094-.274a3.589,3.589,0,0,0,.129-1.531,3.474,3.474,0,0,0-2.961-2.991l-.269-.038.06-.265a3.556,3.556,0,0,0-.85-3.2,3.487,3.487,0,0,0-2.5-1.1h-.106l-.259,0,.006-.259a3.476,3.476,0,0,0-3.442-3.583,3.574,3.574,0,0,0-.849.09l-.265.061-.039-.269a3.476,3.476,0,0,0-3.407-2.981h-.05a3.5,3.5,0,0,0-2.35.9l-.2.184-4.4-5.924L17.53,105.506l3.6.986L16.877,114a3.513,3.513,0,0,0,1.325,4.788c.05.028.1.056.155.083l.012.006a3.548,3.548,0,0,0,.422.177,3.513,3.513,0,0,0,4.2-1.59l2.741-4.837,5.006.355,12.73,12.729a1.883,1.883,0,0,1-2.664,2.664.718.718,0,0,0-.054-.048l-.02-.018-6.847-6.919a.815.815,0,0,0-1.158,1.146l6.921,6.993a1.883,1.883,0,1,1-2.662,2.665l-4.631-4.679a.815.815,0,1,0-1.158,1.146l4.576,4.626a.764.764,0,0,0,.056.063,1.883,1.883,0,0,1-2.664,2.663l-2.528-2.554a.815.815,0,1,0-1.158,1.146l2.474,2.5a.7.7,0,0,0,.055.062,1.883,1.883,0,0,1-1.33,3.216Zm-1.183-1.073h0a1.722,1.722,0,0,1,.2.167,1.383,1.383,0,1,0,1.956-1.957,1.161,1.161,0,0,1-.085-.094l-2.448-2.473a1.315,1.315,0,0,1,1.869-1.849l2.527,2.553a1.383,1.383,0,0,0,1.956-1.957c-.03-.029-.058-.061-.084-.093l-4.55-4.6a1.315,1.315,0,1,1,1.869-1.85l4.63,4.678a1.383,1.383,0,0,0,1.956-1.957l-6.924-7a1.315,1.315,0,0,1,1.869-1.85l6.838,6.91c.03.025.056.049.08.073a1.383,1.383,0,0,0,1.956-1.957l-12.6-12.6-4.505-.319-2.586,4.563A3.988,3.988,0,0,1,21,119.6a4.031,4.031,0,0,1-1.073.146,3.973,3.973,0,0,1-1.3-.22,4.053,4.053,0,0,1-.478-.2l-.017-.008c-.06-.03-.12-.062-.177-.095a4.013,4.013,0,0,1-1.513-5.47l3.94-6.953-2.672-.731-9.62,11.72,3.841,5.176a4,4,0,0,1,2.532-.854,3.977,3.977,0,0,1,3.849,3.151,4.09,4.09,0,0,1,.71-.052,3.974,3.974,0,0,1,3.933,3.842,3.981,3.981,0,0,1,2.728,1.251,4.056,4.056,0,0,1,1.024,3.4,3.974,3.974,0,0,1,3.129,3.374,4.093,4.093,0,0,1-.147,1.745c-.031.1-.065.208-.108.314a1.552,1.552,0,0,1-.073.15Zm-9.242-1.85a1.883,1.883,0,0,1-1.332-3.215l2.517-2.518a1.906,1.906,0,0,1,1.34-.548,1.855,1.855,0,0,1,1.838,2.154,1.98,1.98,0,0,1-.554,1.1l-2.477,2.477A1.871,1.871,0,0,1,20.252,137.466Zm2.526-5.781a1.4,1.4,0,0,0-.987.4L19.273,134.6a1.383,1.383,0,1,0,1.957,1.956l2.477-2.477a1.476,1.476,0,0,0,.413-.819,1.356,1.356,0,0,0-1.344-1.579Zm-6.327,1.942a1.883,1.883,0,0,1-1.332-3.215l2.518-2.518a1.905,1.905,0,0,1,1.34-.549,1.856,1.856,0,0,1,1.841,2.125,1.977,1.977,0,0,1-.557,1.127l-2.478,2.478A1.871,1.871,0,0,1,16.45,133.628Zm2.526-5.782a1.4,1.4,0,0,0-.986.4l-2.518,2.518a1.383,1.383,0,1,0,1.957,1.956l2.478-2.477a1.474,1.474,0,0,0,.415-.84,1.386,1.386,0,0,0-.76-1.428A1.37,1.37,0,0,0,18.976,127.846Zm-5.866,1.464a1.883,1.883,0,0,1-1.332-3.214l1.3-1.3c.044-.044.091-.087.141-.128a1.879,1.879,0,0,1,1.023-.416l.033,0h0c.054,0,.1-.006.144-.006h.012a1.873,1.873,0,0,1,1.344.59A1.926,1.926,0,0,1,15.7,127.5l-1.259,1.259A1.87,1.87,0,0,1,13.109,129.31Zm-.978-2.861a1.383,1.383,0,0,0,1.956,1.957l1.259-1.259a1.422,1.422,0,0,0,.067-1.968,1.376,1.376,0,0,0-.987-.433H14.42c-.032,0-.067,0-.109.005h-.028a1.379,1.379,0,0,0-.749.3c-.037.03-.072.062-.1.094l-1.3,1.3h0Zm31.673-2.7-12.13-12.129a.71.71,0,0,0-.053-.049.811.811,0,0,0-.465-.187l-5.823-.413-.052,0a.832.832,0,0,0-.714.413l-2.994,5.285a1.871,1.871,0,0,1-1.136.887,1.892,1.892,0,0,1-1.431-.177,1.883,1.883,0,0,1-.71-2.567l4.048-7.144,1.72-.5.026-.009,6.084-1.757h7.462l9.291,11.81ZM25.281,110.467l.087,0,5.823.413a1.308,1.308,0,0,1,.749.3,1.2,1.2,0,0,1,.089.082l11.628,11.628,2.682-5.616L37.391,105.9H30.243l-6.014,1.737-.026.009-1.526.439-3.947,6.966a1.383,1.383,0,0,0,.521,1.886,1.383,1.383,0,0,0,1.886-.521l2.995-5.285A1.339,1.339,0,0,1,25.281,110.467ZM6.322,116.592l-4.128-3.553,9.1-11.271,4.729,3.007Zm-3.434-3.616,3.373,2.9,9.017-10.985L11.4,102.43Zm45.1,2.958-8.766-11.149,4.73-3.008,8.164,10.6Zm-8.031-11.024,8.1,10.3,3.373-2.9-7.6-9.867Z" transform="translate(0 -88.612)" fill="#80057c"/>
    </g>
  </g>
</svg>
