<svg xmlns="http://www.w3.org/2000/svg" width="85" height="85" viewBox="0 0 85 85">
  <g id="theqa" transform="translate(-1653 -2947)">
    <rect id="Rectangle_14334" data-name="Rectangle 14334" width="85" height="85" rx="42.5" transform="translate(1653 2947)" fill="#38bea2" opacity="0.15"/>
    <g id="Group_56633" data-name="Group 56633" transform="translate(1671.844 2964.555)">
      <g id="_x31_9_Private_Storage" transform="translate(4 1.936)">
        <g id="Group_56632" data-name="Group 56632">
          <path id="Path_108625" data-name="Path 108625" d="M23.656,1.936,4,9.084V24.973C4,42.928,23.074,47.811,23.266,47.859l.39.094.39-.094c.192-.048,19.266-4.932,19.266-22.886V9.084Zm16.38,23.038c0,14.216-13.774,18.848-16.374,19.6-2.507-.742-16.387-5.5-16.387-19.6v-13.6l16.38-5.955,16.38,5.955Z" transform="translate(-4 -1.936)" fill="#38bea2"/>
          <path id="Path_108626" data-name="Path 108626" d="M11.609,17.845,9.293,20.161,17,27.872,31.265,13.609l-2.316-2.316L17,23.239Z" transform="translate(-0.623 4.035)" fill="#38bea2"/>
        </g>
      </g>
    </g>
  </g>
</svg>
